<svg width="300" height="300" viewBox="0 0 300 300" fill="none" xmlns="http://www.w3.org/2000/svg">
  <path fill-rule="evenodd" clip-rule="evenodd" d="M149.984 130.392C149.565 130.45 148.39 130.607 147.366 130.741C146.342 130.874 145.149 131.032 144.719 131.09C144.602 131.107 144.486 131.124 144.378 131.14L144.378 131.14L144.378 131.14L144.377 131.14C144.088 131.182 143.854 131.217 143.799 131.229L143.671 131.264L143.701 169.05L150.129 169.079C150.17 168.829 150.199 168.026 150.222 167.13C150.245 166.234 150.28 165.437 150.298 165.356C150.339 165.216 150.356 165.234 150.595 165.589C150.74 165.798 151.037 166.188 151.264 166.461C151.49 166.735 151.793 167.049 151.927 167.159C152.066 167.27 152.287 167.456 152.415 167.572C152.549 167.689 152.881 167.927 153.154 168.102C153.428 168.276 153.818 168.509 154.027 168.614C154.236 168.713 154.632 168.887 154.917 168.998C155.196 169.108 155.668 169.26 155.958 169.341C156.255 169.417 156.761 169.527 157.081 169.58C157.488 169.649 158.024 169.679 158.885 169.684C159.653 169.69 160.293 169.661 160.601 169.615C160.874 169.568 161.462 169.44 161.91 169.329C162.358 169.219 162.8 169.097 162.899 169.05L162.994 169.011L162.995 169.01C163.12 168.958 163.312 168.878 163.481 168.812C163.702 168.724 164.109 168.532 164.382 168.387C164.656 168.242 165.011 168.038 165.168 167.933C165.331 167.834 165.68 167.584 165.953 167.381C166.227 167.177 166.756 166.7 167.14 166.316C167.524 165.932 167.943 165.478 168.071 165.304C168.205 165.135 168.35 164.937 168.397 164.861C168.443 164.792 168.53 164.669 168.589 164.594C168.641 164.518 168.781 164.297 168.897 164.105C169.013 163.913 169.217 163.547 169.357 163.291C169.49 163.035 169.653 162.691 169.706 162.534C169.764 162.371 169.834 162.214 169.857 162.185C169.88 162.156 169.944 162.011 169.997 161.865C170.049 161.72 170.142 161.446 170.206 161.254C170.27 161.062 170.392 160.655 170.468 160.353C170.549 160.05 170.666 159.538 170.724 159.218C170.782 158.898 170.863 158.322 170.898 157.938C170.951 157.479 170.962 156.746 170.939 155.786C170.916 154.576 170.881 154.198 170.759 153.517C170.677 153.069 170.555 152.493 170.491 152.237C170.421 151.981 170.258 151.457 170.13 151.073C170.002 150.69 169.735 150.038 169.531 149.619C169.328 149.2 169.089 148.758 169.002 148.63C168.92 148.502 168.81 148.322 168.757 148.223C168.711 148.124 168.647 148.019 168.618 147.99C168.594 147.961 168.385 147.682 168.164 147.379C167.937 147.077 167.518 146.594 167.233 146.303C166.948 146.012 166.587 145.669 166.436 145.541C166.285 145.407 166.041 145.209 165.895 145.105C165.75 144.994 165.488 144.808 165.313 144.691C165.139 144.581 164.772 144.366 164.499 144.22C164.225 144.075 163.743 143.842 163.423 143.714C163.103 143.58 162.538 143.382 162.172 143.278C161.805 143.173 161.218 143.039 160.863 142.981C160.374 142.9 159.914 142.871 158.914 142.876C157.907 142.876 157.477 142.9 157.052 142.981C156.75 143.039 156.267 143.144 155.976 143.22C155.685 143.295 155.22 143.452 154.929 143.569C154.638 143.685 154.196 143.889 153.94 144.028C153.684 144.168 153.329 144.377 153.154 144.499C152.98 144.616 152.677 144.849 152.485 145.011C152.293 145.18 152.008 145.442 151.845 145.605C151.688 145.762 151.432 146.041 151.281 146.216L151.008 146.536V146.527C151.002 130.45 151.002 130.392 150.885 130.333L150.848 130.316C150.8 130.294 150.762 130.276 150.757 130.281C150.748 130.286 150.518 130.318 150.207 130.361L149.984 130.392ZM239.925 130.397C239.506 130.456 238.57 130.584 237.831 130.682C237.364 130.741 236.719 130.826 236.125 130.903L236.124 130.903C235.778 130.948 235.449 130.991 235.184 131.026C234.463 131.119 233.828 131.212 233.776 131.229C233.712 131.253 233.66 131.346 233.642 131.45C233.625 131.555 233.619 140.061 233.625 150.346L233.642 169.05L240.943 169.079C240.949 160.085 240.967 157.426 240.99 157.362C241.025 157.269 241.071 157.304 241.322 157.589C241.444 157.729 241.612 157.925 241.75 158.085L241.75 158.085L241.874 158.229C242.02 158.392 242.345 158.776 242.601 159.079C242.857 159.381 243.433 160.044 243.881 160.556C244.329 161.074 244.771 161.586 244.87 161.702C244.903 161.741 244.962 161.811 245.036 161.901C245.185 162.079 245.398 162.335 245.603 162.575C245.912 162.936 246.435 163.535 246.761 163.902C247.093 164.268 247.506 164.757 247.686 164.978C247.861 165.199 248.152 165.548 248.332 165.746C248.396 165.818 248.466 165.897 248.534 165.974C248.652 166.105 248.762 166.228 248.821 166.298C248.869 166.353 248.944 166.441 249.026 166.538L249.027 166.54C249.103 166.63 249.184 166.727 249.257 166.81C249.36 166.934 249.547 167.153 249.73 167.368L249.949 167.625C250.188 167.898 250.566 168.335 250.793 168.596L251.212 169.073C259.432 169.079 259.973 169.068 259.996 168.992C260.014 168.945 259.967 168.847 259.892 168.771C259.822 168.701 259.607 168.457 259.415 168.236C259.223 168.015 258.856 167.596 258.6 167.305C258.344 167.014 257.966 166.583 257.757 166.345C257.547 166.106 257.285 165.792 257.169 165.647C257.053 165.501 256.791 165.199 256.587 164.972C256.444 164.812 256.24 164.584 256.065 164.387L255.866 164.163C255.674 163.948 255.482 163.715 255.435 163.646C255.389 163.582 255.319 163.506 255.29 163.488C255.255 163.465 255.069 163.256 254.877 163.023C254.685 162.785 254.417 162.476 254.283 162.331C254.15 162.185 253.958 161.964 253.859 161.836C253.754 161.708 253.521 161.435 253.335 161.225C253.143 161.016 252.515 160.295 251.927 159.62C251.34 158.945 250.729 158.241 250.572 158.055C250.415 157.869 249.967 157.357 249.583 156.92C249.199 156.484 248.768 155.989 248.623 155.821C248.477 155.652 248.344 155.477 248.32 155.431C248.291 155.384 248.326 155.286 248.402 155.187C248.472 155.099 248.675 154.861 248.855 154.651C248.92 154.576 248.989 154.497 249.055 154.422C249.172 154.286 249.278 154.164 249.327 154.105C249.402 154.011 249.507 153.889 249.554 153.843C249.6 153.79 249.751 153.604 249.891 153.43C250.031 153.255 250.269 152.976 250.42 152.819C250.572 152.656 250.816 152.371 250.973 152.179C251.124 151.987 251.345 151.725 251.468 151.597C251.584 151.469 251.782 151.236 251.91 151.073C252.038 150.916 252.206 150.719 252.288 150.631C252.369 150.544 252.62 150.259 252.841 149.991C253.043 149.752 253.371 149.372 253.595 149.113L253.596 149.111L253.655 149.043C253.882 148.781 254.208 148.403 254.382 148.194C254.557 147.99 254.749 147.763 254.801 147.699C254.854 147.635 255.086 147.356 255.325 147.083C255.468 146.914 255.715 146.627 255.973 146.327L255.983 146.315L255.988 146.309L256.024 146.267L256.036 146.254C256.177 146.089 256.319 145.924 256.448 145.774C256.837 145.331 257.192 144.913 257.245 144.849L257.291 144.792L257.292 144.791C257.359 144.71 257.463 144.583 257.553 144.47C257.675 144.325 257.885 144.086 258.024 143.929C258.164 143.778 258.28 143.627 258.28 143.598C258.28 143.569 258.239 143.528 258.193 143.51C258.146 143.493 256.36 143.481 254.219 143.481C250.508 143.481 250.333 143.481 250.223 143.586C250.159 143.65 250.013 143.801 249.903 143.924C249.792 144.052 249.501 144.389 249.263 144.674C249.158 144.802 249.052 144.928 248.964 145.035C248.851 145.169 248.765 145.272 248.739 145.308C248.693 145.366 248.367 145.75 248.012 146.158C247.657 146.565 247.215 147.088 247.023 147.321C246.831 147.548 246.476 147.967 246.238 148.246C245.999 148.525 245.539 149.066 245.219 149.445C244.899 149.823 244.376 150.439 244.056 150.812L243.918 150.973L243.917 150.973L243.917 150.973L243.916 150.975C243.634 151.302 243.345 151.638 243.236 151.777C243.175 151.848 243.097 151.941 243.017 152.037L243.013 152.042C242.916 152.158 242.817 152.277 242.741 152.365C242.601 152.534 242.282 152.912 242.026 153.209C241.775 153.505 241.45 153.883 241.298 154.052C241.153 154.215 241.013 154.337 240.99 154.326C240.961 154.314 240.943 148.909 240.943 142.318C240.943 134.365 240.926 130.333 240.885 130.333C240.85 130.333 240.792 130.322 240.757 130.31C240.717 130.298 240.344 130.339 239.925 130.397ZM51.1118 131.032C51.2863 130.991 51.7459 130.927 52.1299 130.886C52.5139 130.845 53.2469 130.81 53.7589 130.805C54.2708 130.805 55.1202 130.84 55.6496 130.886C56.179 130.933 56.9353 131.026 57.3368 131.096C57.7382 131.159 58.128 131.241 58.3549 131.351L58.3665 134.057C58.3781 135.872 58.3607 136.779 58.3199 136.82C58.285 136.855 57.7091 136.872 56.7666 136.861C55.8998 136.849 55.0737 136.872 54.8061 136.907C54.5501 136.942 54.1836 137.012 53.9916 137.064C53.7996 137.117 53.4854 137.233 53.2934 137.32C53.1015 137.408 52.7757 137.635 52.5721 137.821C52.287 138.083 52.1532 138.263 51.9786 138.624C51.8565 138.88 51.7169 139.246 51.6703 139.438C51.618 139.63 51.554 140.037 51.519 140.34C51.49 140.642 51.4609 141.474 51.4609 142.184C51.4609 142.993 51.4841 143.493 51.519 143.51C51.554 143.528 53.0026 143.54 54.7479 143.54C57.7091 143.54 57.9243 143.545 57.9709 143.638C58.0058 143.708 57.9767 143.982 57.8894 144.441L57.8109 144.872C57.7045 145.453 57.5285 146.415 57.3658 147.321C57.0284 149.189 56.9528 149.52 56.8481 149.607C56.7317 149.706 56.5455 149.712 54.1254 149.706C51.8565 149.706 51.5132 149.718 51.49 149.794C51.4725 149.84 51.4609 154.198 51.4609 169.079H47.8539C44.3051 169.079 44.2469 169.079 44.1887 168.963C44.148 168.887 44.1306 165.542 44.1306 149.706H42.1235C40.1745 149.706 40.1164 149.701 40.0582 149.59C40.0233 149.514 40 148.397 40 146.594C40 145.011 40.0116 143.673 40.0291 143.627C40.0524 143.551 40.3316 143.54 44.1015 143.54L44.1422 141.521C44.1655 140.404 44.2062 139.234 44.2469 138.914C44.2818 138.595 44.3633 138.059 44.4273 137.722C44.4913 137.384 44.6134 136.878 44.6891 136.587C44.7705 136.297 44.8752 135.982 44.916 135.889C44.9567 135.796 45.1079 135.465 45.2534 135.162C45.393 134.86 45.5792 134.505 45.6664 134.377C45.7479 134.249 45.8759 134.068 45.9515 133.975C46.0213 133.876 46.2249 133.649 46.3995 133.469C46.574 133.283 46.8358 133.021 46.9871 132.882C47.1383 132.742 47.4059 132.527 47.5863 132.399C47.7666 132.271 48.1041 132.067 48.3368 131.951C48.5695 131.829 48.9651 131.654 49.2211 131.555C49.477 131.456 49.9366 131.311 50.2392 131.235C50.5417 131.159 50.9373 131.066 51.1118 131.032ZM69.4085 142.9C69.1525 142.923 68.8151 142.975 68.6522 143.01C68.4951 143.045 68.2159 143.103 68.0413 143.132C67.8668 143.161 67.5119 143.254 67.2559 143.33C67 143.406 66.6625 143.516 66.4996 143.574C66.3426 143.627 66.1855 143.691 66.1506 143.714C66.1157 143.737 65.8713 143.854 65.5979 143.976C65.3245 144.092 64.9928 144.267 64.859 144.36C64.7194 144.453 64.5972 144.529 64.5798 144.529C64.5623 144.529 64.3587 144.657 64.1318 144.808C63.8991 144.965 63.5384 145.233 63.329 145.401C63.1195 145.57 62.6949 145.971 62.3807 146.297C62.2489 146.436 62.1202 146.572 62.0129 146.684L62.0129 146.684L62.0129 146.684C61.8693 146.835 61.7641 146.945 61.7408 146.972C61.7058 147.024 61.5779 147.181 61.4615 147.321C61.351 147.467 61.1532 147.74 61.031 147.932C60.903 148.124 60.7866 148.293 60.7634 148.31C60.7401 148.328 60.5249 148.717 60.2805 149.183C60.042 149.648 59.7395 150.3 59.6173 150.637C59.4893 150.975 59.309 151.521 59.2101 151.859C59.117 152.196 59.0123 152.598 58.9773 152.761C58.9366 152.918 58.8726 153.273 58.8261 153.546C58.7795 153.819 58.7097 154.395 58.669 154.826C58.6283 155.309 58.6108 156.065 58.6341 156.804C58.6574 157.578 58.7097 158.27 58.7912 158.782C58.861 159.212 58.925 159.579 58.9366 159.596C58.9483 159.614 59.0006 159.835 59.053 160.091C59.1053 160.347 59.2682 160.911 59.4079 161.342C59.5591 161.79 59.8907 162.563 60.1758 163.145C60.455 163.704 60.711 164.187 60.7401 164.221C60.775 164.251 60.8681 164.384 60.9437 164.512C61.0194 164.64 61.2172 164.914 61.3742 165.123C61.5313 165.333 61.7931 165.647 61.956 165.821C62.1189 165.996 62.4214 166.31 62.6309 166.519C62.8403 166.729 63.1312 166.997 63.2708 167.119C63.4163 167.241 63.8584 167.561 64.2598 167.828C64.6612 168.096 65.2256 168.422 65.5106 168.556C65.7332 168.656 65.9594 168.759 66.0783 168.814L66.1506 168.847C66.2106 168.874 66.378 168.942 66.5282 169.003L66.5578 169.015C66.7207 169.073 67.0989 169.19 67.4014 169.271C67.7039 169.353 68.1519 169.463 68.3904 169.51C68.6289 169.556 69.1292 169.632 69.4957 169.667C69.8972 169.708 70.5371 169.725 71.0956 169.702C71.6076 169.684 72.2592 169.626 72.55 169.58C72.8409 169.533 73.2191 169.452 73.3936 169.411C73.4896 169.385 73.6244 169.347 73.7582 169.31L73.7594 169.309L73.7605 169.309L73.7612 169.309C73.8696 169.278 73.9771 169.248 74.0626 169.225C74.2546 169.172 74.4932 169.091 74.5862 169.05C74.6793 169.004 74.9237 168.905 75.1273 168.823C75.3251 168.742 75.744 168.527 76.0581 168.346C76.3665 168.166 76.8435 167.84 77.1169 167.625C77.3904 167.404 77.786 167.049 77.9954 166.828C78.2048 166.613 78.5597 166.2 78.775 165.909C78.9961 165.618 79.1997 165.379 79.2346 165.379C79.2753 165.373 79.316 165.839 79.3451 166.805C79.3684 167.59 79.4033 168.428 79.4149 168.655L79.444 169.079C85.4886 169.079 85.9075 169.068 85.9308 168.992C85.9482 168.945 85.9598 163.221 85.9598 156.28C85.9598 149.34 85.9482 143.615 85.9308 143.569C85.9075 143.493 85.4944 143.481 82.7019 143.481C80.2003 143.481 79.4964 143.499 79.4615 143.551C79.4382 143.592 79.4033 144.267 79.38 145.052C79.3568 145.838 79.3335 146.64 79.3335 146.838C79.3277 147.112 79.3044 147.211 79.2404 147.234C79.1822 147.251 79.0717 147.135 78.8972 146.867C78.7517 146.652 78.4957 146.32 78.327 146.123C78.1583 145.931 77.8209 145.587 77.5824 145.366C77.4704 145.263 77.3648 145.165 77.2825 145.089L77.2819 145.089C77.1892 145.003 77.1262 144.945 77.1169 144.936C77.0995 144.918 76.9599 144.814 76.797 144.697C76.6399 144.587 76.2734 144.36 75.9825 144.191C75.6916 144.028 75.168 143.772 74.8189 143.633C74.4699 143.487 73.9288 143.301 73.6263 143.22C73.3238 143.138 72.8235 143.033 72.521 142.987C72.2184 142.935 71.497 142.888 70.9211 142.871C70.3451 142.859 69.6645 142.871 69.4085 142.9ZM101.365 142.895L101.367 142.895L101.367 142.895L101.445 142.886L101.522 142.876C101.621 142.859 102.261 142.859 102.948 142.871C103.785 142.888 104.437 142.935 104.926 143.01C105.327 143.068 105.885 143.179 106.176 143.243C106.467 143.313 107.078 143.487 107.544 143.633C108.009 143.784 108.439 143.929 108.503 143.97C108.567 144.011 108.754 144.086 108.911 144.145C109.074 144.209 109.475 144.395 109.812 144.569C110.15 144.744 110.511 144.953 110.615 145.029C110.714 145.105 110.813 145.169 110.831 145.169C110.848 145.169 111.034 145.291 111.255 145.442C111.47 145.593 111.785 145.838 111.953 145.983C112.122 146.128 112.256 146.286 112.256 146.332C112.256 146.379 112.099 146.693 111.901 147.03C111.703 147.368 111.453 147.769 111.348 147.932C111.249 148.089 111.069 148.397 110.953 148.613C110.836 148.834 110.639 149.171 110.516 149.369C110.388 149.573 110.109 150.044 109.888 150.422C109.673 150.8 109.458 151.12 109.423 151.132C109.382 151.149 109.26 151.103 109.161 151.027C109.056 150.951 108.695 150.742 108.358 150.55C108.021 150.364 107.514 150.114 107.224 149.997C106.933 149.881 106.514 149.73 106.293 149.66C106.072 149.596 105.664 149.485 105.391 149.415C105.019 149.322 104.646 149.282 103.878 149.258C103.221 149.235 102.674 149.253 102.337 149.299C102.046 149.334 101.592 149.433 101.319 149.509C101.045 149.59 100.591 149.765 100.3 149.904C100.01 150.038 99.6314 150.253 99.4569 150.375C99.2824 150.503 98.9973 150.724 98.8228 150.87C98.6483 151.015 98.3865 151.295 98.241 151.492C98.0956 151.684 97.921 151.917 97.857 152.004C97.7931 152.092 97.6302 152.377 97.4963 152.633C97.3625 152.894 97.1938 153.296 97.124 153.517C97.0542 153.738 96.9728 153.953 96.9437 153.982C96.9204 154.011 96.8971 154.11 96.8971 154.198C96.8971 154.291 96.8739 154.419 96.8448 154.488C96.8157 154.564 96.7575 155.012 96.7226 155.495C96.6644 156.181 96.6644 156.536 96.7226 157.153C96.7691 157.706 96.8506 158.136 96.9902 158.619C97.1007 158.997 97.2985 159.521 97.4265 159.783C97.5603 160.05 97.7872 160.452 97.9385 160.673C98.0839 160.894 98.3748 161.249 98.5843 161.446C98.7937 161.65 99.1079 161.929 99.2824 162.063C99.4569 162.203 99.8234 162.43 100.097 162.575C100.37 162.721 100.812 162.907 101.086 162.988C101.359 163.07 101.749 163.174 101.959 163.227C102.168 163.273 102.587 163.326 102.889 163.343C103.192 163.366 103.75 163.355 104.129 163.32C104.501 163.291 105.065 163.203 105.379 163.139C105.688 163.07 106.141 162.953 106.38 162.872C106.619 162.796 107.09 162.61 107.427 162.465C107.765 162.313 108.073 162.168 108.119 162.133C108.16 162.098 108.3 162.017 108.422 161.953C108.544 161.889 108.812 161.732 109.01 161.609C109.213 161.481 109.492 161.289 109.638 161.185C109.783 161.074 109.935 160.993 109.975 160.993C110.01 160.993 110.103 161.097 110.179 161.225C110.249 161.353 110.569 161.906 110.889 162.447L110.995 162.628L111.139 162.875L111.14 162.876C111.371 163.271 111.576 163.62 111.645 163.744C111.743 163.912 111.87 164.131 111.934 164.242L111.936 164.245C112 164.349 112.116 164.536 112.192 164.652C112.267 164.768 112.43 165.053 112.553 165.28C112.692 165.542 112.762 165.734 112.739 165.786C112.71 165.833 112.523 166.019 112.314 166.2C112.105 166.38 111.79 166.636 111.616 166.764C111.546 166.817 111.466 166.878 111.387 166.937L111.386 166.938L111.386 166.938C111.267 167.028 111.151 167.115 111.081 167.171C110.959 167.258 110.848 167.334 110.831 167.334C110.813 167.334 110.627 167.45 110.412 167.596C110.191 167.735 109.987 167.858 109.958 167.858C109.929 167.858 109.807 167.916 109.696 167.991C109.586 168.067 109.202 168.253 108.853 168.404C108.503 168.562 108.067 168.736 107.893 168.8C107.807 168.828 107.692 168.868 107.573 168.908C107.449 168.951 107.322 168.994 107.224 169.027C107.032 169.091 106.56 169.219 106.176 169.312C105.792 169.405 105.187 169.527 104.838 169.585C104.344 169.661 103.867 169.69 102.744 169.69C101.854 169.69 101.086 169.661 100.766 169.615C100.475 169.574 99.9282 169.475 99.5442 169.393C99.1602 169.318 98.7006 169.213 98.5261 169.161C98.3516 169.108 97.9559 168.98 97.6534 168.87C97.3509 168.759 96.9553 168.596 96.7808 168.515C96.6062 168.434 96.3677 168.329 96.2572 168.282C96.1466 168.23 95.8732 168.09 95.6463 167.956C95.4194 167.828 95.0587 167.607 94.8318 167.456C94.6049 167.311 94.3955 167.171 94.3664 167.148C94.3373 167.125 94.1803 167.002 94.0174 166.88C93.8603 166.758 93.4414 166.38 93.0923 166.048C92.7433 165.717 92.3128 165.257 92.1324 165.036C91.9521 164.815 91.6961 164.472 91.5623 164.28C91.4343 164.088 91.2132 163.744 91.0736 163.523C90.9282 163.302 90.7071 162.895 90.5733 162.622C90.4395 162.348 90.2359 161.906 90.1311 161.633C90.0206 161.359 89.8926 161.004 89.8403 160.847L89.8031 160.718L89.8031 160.718L89.8026 160.716C89.7478 160.526 89.6658 160.242 89.6017 160.004C89.5203 159.701 89.4272 159.282 89.3923 159.073C89.3516 158.863 89.3167 158.59 89.305 158.462C89.2934 158.334 89.2585 158.031 89.2236 157.793C89.1887 157.554 89.1654 156.845 89.1654 156.222C89.1712 155.6 89.1945 154.931 89.2236 154.739C89.2527 154.547 89.2876 154.273 89.305 154.128C89.3167 153.982 89.3516 153.697 89.3865 153.488C89.4214 153.278 89.4912 152.964 89.5377 152.79C89.5901 152.615 89.6715 152.324 89.7181 152.15C89.7646 151.975 89.8752 151.632 89.9566 151.393C90.0381 151.155 90.1253 150.928 90.1486 150.899C90.1719 150.87 90.2242 150.736 90.2649 150.608C90.3057 150.48 90.4453 150.166 90.5733 149.91C90.6955 149.654 90.9514 149.212 91.1318 148.921L91.2068 148.802L91.2069 148.802C91.3584 148.562 91.4924 148.35 91.5274 148.31C91.5681 148.264 91.7136 148.066 91.8532 147.874C91.9986 147.682 92.2779 147.339 92.4815 147.117C92.6851 146.891 93.0225 146.547 93.232 146.361C93.4414 146.169 93.7556 145.89 93.9301 145.744C94.1046 145.599 94.4944 145.32 94.7911 145.122C95.082 144.924 95.3554 144.761 95.3845 144.761C95.4136 144.761 95.5532 144.686 95.6929 144.593C95.8267 144.499 96.2281 144.296 96.5772 144.133C96.9262 143.97 97.5836 143.72 98.0316 143.574C98.4795 143.423 99.1602 143.243 99.5442 143.161C99.9282 143.086 100.492 142.993 100.795 142.964C101 142.94 101.216 142.914 101.364 142.895L101.365 142.895L101.365 142.895ZM125.869 142.9C125.596 142.929 125.125 142.993 124.822 143.045C124.52 143.097 123.944 143.225 123.542 143.336C123.141 143.441 122.606 143.604 122.35 143.702C122.094 143.796 121.634 143.993 121.331 144.133C121.029 144.273 120.581 144.505 120.342 144.645C120.104 144.785 119.761 145.006 119.586 145.134C119.519 145.185 119.455 145.233 119.401 145.275C119.312 145.342 119.248 145.39 119.237 145.401C119.22 145.419 119.103 145.506 118.975 145.599C118.847 145.692 118.638 145.861 118.516 145.977C118.388 146.094 118.097 146.373 117.876 146.6C117.649 146.827 117.317 147.193 117.137 147.414C116.962 147.635 116.735 147.932 116.637 148.077C116.538 148.223 116.369 148.485 116.258 148.659C116.148 148.834 115.921 149.229 115.758 149.532C115.601 149.834 115.386 150.294 115.281 150.55C115.182 150.806 115.008 151.289 114.903 151.626C114.792 151.964 114.664 152.394 114.618 152.586C114.571 152.778 114.478 153.249 114.414 153.633C114.35 154.017 114.269 154.791 114.234 155.35C114.187 156.065 114.187 156.624 114.234 157.24C114.269 157.717 114.321 158.299 114.356 158.52C114.391 158.741 114.472 159.189 114.536 159.509C114.6 159.829 114.705 160.26 114.769 160.469C114.833 160.679 114.961 161.057 115.048 161.313C115.141 161.569 115.281 161.935 115.368 162.127C115.456 162.319 115.554 162.54 115.589 162.622C115.63 162.703 115.746 162.924 115.857 163.116C115.962 163.308 116.171 163.651 116.317 163.872L116.38 163.968L116.38 163.969C116.501 164.153 116.606 164.313 116.631 164.338C116.654 164.367 116.84 164.605 117.038 164.861C117.236 165.117 117.655 165.577 117.963 165.88C118.271 166.182 118.667 166.543 118.836 166.677L118.919 166.741C119.085 166.868 119.288 167.024 119.412 167.113C119.557 167.218 119.842 167.41 120.052 167.538L120.155 167.601L120.155 167.601L120.156 167.601C120.337 167.712 120.521 167.825 120.604 167.869C120.703 167.922 120.988 168.067 121.244 168.195C121.5 168.323 121.774 168.445 121.855 168.468C121.937 168.492 122.03 168.532 122.059 168.556C122.088 168.585 122.379 168.701 122.699 168.817C123.019 168.928 123.583 169.103 123.949 169.196C124.316 169.289 124.933 169.417 125.317 169.481C125.701 169.551 126.37 169.626 126.8 169.661C127.231 169.69 127.888 169.719 128.255 169.719C128.621 169.719 129.261 169.696 129.68 169.661C130.099 169.626 130.634 169.574 130.873 169.545C131.111 169.51 131.507 169.446 131.745 169.393C131.984 169.347 132.414 169.254 132.705 169.19C132.996 169.126 133.304 169.05 133.403 169.021C133.502 168.992 133.764 168.911 133.985 168.841C134.206 168.771 134.509 168.666 134.654 168.614L134.709 168.592C134.867 168.528 135.127 168.424 135.323 168.352C135.544 168.265 135.876 168.131 136.05 168.05C136.225 167.974 136.644 167.753 136.981 167.561C137.319 167.369 137.708 167.136 137.854 167.049C137.999 166.962 138.325 166.729 138.581 166.537C138.837 166.339 139.122 166.101 139.221 166.002L139.395 165.827C139 165.077 138.866 164.85 138.837 164.832C138.814 164.815 138.691 164.605 138.564 164.367C138.441 164.128 138.249 163.774 138.145 163.582C138.04 163.39 137.894 163.139 137.825 163.029C137.755 162.918 137.615 162.668 137.511 162.476C137.412 162.284 137.225 161.941 137.103 161.72C136.935 161.412 136.847 161.307 136.743 161.295C136.661 161.284 136.556 161.324 136.487 161.4C136.423 161.464 136.353 161.522 136.33 161.516C136.3 161.516 136.196 161.574 136.097 161.644C135.999 161.715 135.756 161.855 135.545 161.978L135.544 161.978L135.498 162.005C135.277 162.127 134.869 162.342 134.596 162.482C134.322 162.622 133.81 162.837 133.461 162.971C133.112 163.099 132.519 163.285 132.152 163.378C131.786 163.465 131.222 163.587 130.902 163.646C130.483 163.715 129.982 163.75 129.127 163.75C128.394 163.756 127.708 163.727 127.353 163.675C127.033 163.628 126.469 163.506 126.102 163.401C125.735 163.296 125.177 163.093 124.869 162.947C124.554 162.802 124.264 162.657 124.229 162.622C124.209 162.608 124.141 162.557 124.046 162.486L124.046 162.486L124.043 162.484L124.04 162.482C123.936 162.405 123.802 162.304 123.664 162.203C123.391 161.999 123.036 161.691 122.867 161.516C122.699 161.342 122.454 161.051 122.326 160.876C122.192 160.702 121.942 160.265 121.768 159.916C121.587 159.567 121.425 159.178 121.401 159.055L121.361 158.84L139.39 158.811C139.5 158.136 139.564 157.665 139.599 157.328C139.628 156.99 139.657 156.269 139.657 155.728C139.657 155.187 139.617 154.372 139.57 153.924C139.523 153.476 139.442 152.889 139.39 152.615C139.343 152.342 139.221 151.818 139.122 151.452C139.029 151.085 138.86 150.55 138.755 150.259C138.651 149.968 138.453 149.485 138.313 149.183C138.174 148.88 137.918 148.397 137.743 148.106C137.569 147.816 137.266 147.373 137.068 147.117C136.871 146.861 136.487 146.431 136.219 146.158C135.951 145.884 135.562 145.523 135.352 145.361C135.143 145.192 134.881 144.994 134.77 144.918C134.66 144.843 134.462 144.715 134.334 144.633C134.206 144.552 133.933 144.389 133.723 144.278C133.514 144.162 133.112 143.976 132.821 143.86C132.531 143.743 132.129 143.586 131.92 143.516C131.71 143.441 131.251 143.313 130.902 143.231C130.553 143.144 129.971 143.033 129.622 142.987C129.255 142.935 128.423 142.882 127.673 142.871C126.951 142.859 126.143 142.871 125.869 142.9ZM185.586 142.883L185.646 142.876C185.809 142.865 186.536 142.865 187.275 142.871C188.095 142.882 188.858 142.929 189.253 142.981C189.608 143.033 190.103 143.127 190.359 143.185C190.614 143.249 190.917 143.318 191.028 143.342C191.138 143.359 191.54 143.481 191.918 143.604C192.29 143.732 192.721 143.889 192.878 143.953C193.029 144.022 193.419 144.209 193.75 144.377C194.082 144.54 194.425 144.709 194.507 144.755C194.594 144.802 194.797 144.924 194.954 145.035C195.117 145.139 195.402 145.337 195.594 145.477C195.786 145.611 196.188 145.942 196.496 146.21C196.799 146.478 197.229 146.896 197.444 147.141C197.666 147.385 198.032 147.85 198.259 148.176C198.492 148.496 198.753 148.892 198.847 149.049C198.94 149.2 199.137 149.561 199.289 149.852C199.44 150.143 199.58 150.439 199.609 150.521C199.632 150.602 199.713 150.8 199.783 150.957C199.859 151.12 200.022 151.615 200.156 152.062C200.289 152.51 200.446 153.168 200.51 153.517C200.574 153.866 200.656 154.471 200.691 154.855C200.731 155.286 200.743 156.007 200.726 156.746C200.702 157.514 200.65 158.194 200.574 158.666C200.51 159.067 200.406 159.591 200.342 159.829C200.323 159.898 200.303 159.976 200.281 160.057L200.252 160.168C200.207 160.335 200.163 160.503 200.132 160.615C200.08 160.807 199.923 161.254 199.789 161.604C199.649 161.953 199.44 162.441 199.318 162.68C199.201 162.918 198.957 163.349 198.777 163.64C198.596 163.931 198.428 164.192 198.404 164.221L198.358 164.281L198.356 164.283C198.272 164.39 198.094 164.617 197.898 164.861C197.648 165.181 197.223 165.653 196.956 165.914C196.688 166.17 196.31 166.514 196.118 166.677C195.926 166.834 195.53 167.125 195.245 167.317C194.96 167.508 194.594 167.741 194.431 167.84C194.274 167.933 193.867 168.148 193.529 168.311C193.192 168.468 192.68 168.684 192.395 168.788C192.11 168.887 191.662 169.033 191.406 169.108C191.15 169.178 190.69 169.295 190.388 169.364C190.085 169.428 189.521 169.533 189.137 169.585C188.631 169.655 188.037 169.684 186.984 169.69C186.094 169.69 185.326 169.661 185.006 169.615C184.816 169.587 184.578 169.55 184.383 169.519L184.382 169.519C184.284 169.504 184.198 169.49 184.134 169.481C183.942 169.446 183.546 169.364 183.261 169.3C182.976 169.236 182.423 169.079 182.039 168.957C181.655 168.829 181.103 168.62 180.817 168.492C180.532 168.364 180.242 168.23 180.178 168.195L180.131 168.169C180.037 168.118 179.856 168.019 179.683 167.927C179.474 167.817 179.264 167.695 179.218 167.66C179.171 167.625 179.066 167.561 178.985 167.514C178.903 167.474 178.729 167.351 178.589 167.253C178.45 167.154 178.147 166.927 177.92 166.746C177.688 166.566 177.245 166.165 176.937 165.845C176.629 165.53 176.309 165.193 176.227 165.094L176.195 165.056L176.195 165.055C176.106 164.948 175.962 164.772 175.849 164.629C175.715 164.472 175.611 164.32 175.611 164.297C175.611 164.268 175.547 164.163 175.465 164.064C175.42 164.007 175.374 163.945 175.337 163.897C175.307 163.858 175.284 163.827 175.273 163.814C175.244 163.785 175.099 163.523 174.942 163.232C174.785 162.942 174.575 162.54 174.47 162.331C174.371 162.121 174.168 161.615 174.022 161.196C173.871 160.777 173.685 160.167 173.604 159.829C173.528 159.492 173.446 159.114 173.435 158.986C173.417 158.858 173.365 158.479 173.313 158.142C173.254 157.746 173.22 157.106 173.22 156.339C173.214 155.565 173.249 154.878 173.307 154.39C173.359 153.971 173.47 153.331 173.551 152.964C173.633 152.598 173.766 152.097 173.842 151.859L173.885 151.731C173.964 151.499 174.066 151.2 174.139 151.015C174.22 150.794 174.313 150.602 174.342 150.596C174.366 150.585 174.389 150.544 174.389 150.509C174.389 150.468 174.453 150.276 174.54 150.084C174.622 149.892 174.796 149.549 174.93 149.328C175.058 149.107 175.256 148.775 175.372 148.601C175.488 148.426 175.71 148.112 175.872 147.903C176.03 147.693 176.297 147.379 176.454 147.205L176.491 147.165C176.651 146.994 176.859 146.771 176.978 146.652C177.096 146.534 177.319 146.326 177.49 146.166L177.49 146.166L177.53 146.128C177.705 145.971 177.967 145.75 178.112 145.646C178.258 145.541 178.531 145.349 178.723 145.215C178.915 145.081 179.346 144.819 179.683 144.627C180.02 144.441 180.439 144.232 180.614 144.168C180.788 144.098 180.986 144.011 181.05 143.97C181.114 143.929 181.521 143.778 181.952 143.633C182.382 143.487 183.022 143.307 183.377 143.225C183.732 143.144 184.32 143.039 184.686 142.993C185.013 142.946 185.395 142.904 185.586 142.883L185.586 142.883L185.586 142.883ZM215.2 142.9C214.915 142.929 214.403 142.993 214.066 143.045C213.728 143.097 213.205 143.202 212.902 143.278C212.6 143.353 212 143.54 211.581 143.685C211.157 143.83 210.476 144.11 210.069 144.313C209.656 144.517 209.103 144.819 208.83 144.994C208.556 145.169 208.219 145.401 208.073 145.506C207.928 145.616 207.695 145.797 207.55 145.919C207.404 146.035 207.015 146.402 206.677 146.739C206.34 147.077 205.909 147.565 205.711 147.816C205.519 148.072 205.223 148.49 205.054 148.746C204.885 149.002 204.571 149.578 204.35 150.026C204.129 150.474 203.844 151.155 203.716 151.539C203.588 151.923 203.419 152.528 203.338 152.877C203.256 153.226 203.146 153.831 203.093 154.215C203.018 154.721 202.989 155.286 202.995 156.28C202.995 157.281 203.024 157.845 203.099 158.375C203.157 158.776 203.285 159.439 203.39 159.858C203.495 160.277 203.687 160.929 203.826 161.313C203.96 161.697 204.094 162.022 204.117 162.04C204.141 162.057 204.181 162.133 204.205 162.214C204.228 162.296 204.402 162.651 204.589 163C204.775 163.349 205.106 163.89 205.322 164.198C205.537 164.507 205.81 164.873 205.921 165.007C206.031 165.141 206.363 165.496 206.648 165.786C206.933 166.083 207.34 166.467 207.55 166.642C207.759 166.816 208.23 167.159 208.597 167.398C208.964 167.642 209.452 167.933 209.673 168.05C209.894 168.166 210.284 168.352 210.534 168.468C210.779 168.579 211.331 168.788 211.756 168.928C212.175 169.068 212.71 169.231 212.931 169.283C213.152 169.335 213.612 169.428 213.949 169.487C214.287 169.545 214.927 169.626 215.375 169.661C215.875 169.708 216.596 169.725 217.236 169.702C217.812 169.684 218.662 169.615 219.127 169.545C219.592 169.481 220.104 169.388 220.262 169.347C220.359 169.319 220.512 169.28 220.666 169.242L220.666 169.241L220.667 169.241C220.769 169.216 220.872 169.19 220.96 169.167C221.181 169.114 221.617 168.98 221.92 168.87C222.062 168.815 222.231 168.751 222.391 168.69C222.571 168.622 222.74 168.558 222.85 168.515C223.06 168.434 223.45 168.247 223.723 168.102C223.996 167.962 224.479 167.671 224.799 167.462C225.119 167.253 225.62 166.892 225.905 166.665C226.19 166.432 226.638 166.019 226.9 165.752C227.155 165.49 227.522 165.065 227.714 164.821C227.9 164.576 228.115 164.291 228.191 164.181C228.267 164.076 228.47 163.756 228.651 163.465C228.831 163.174 229.104 162.662 229.261 162.313C229.413 161.97 229.657 161.342 229.797 160.923C229.942 160.498 230.122 159.829 230.204 159.434C230.285 159.044 230.355 158.666 230.349 158.596C230.349 158.52 230.378 158.293 230.419 158.084C230.466 157.851 230.495 157.188 230.495 156.339C230.501 155.524 230.472 154.75 230.425 154.419C230.384 154.116 230.309 153.657 230.262 153.401C230.216 153.145 230.105 152.685 230.024 152.382C229.942 152.08 229.773 151.539 229.645 151.19C229.517 150.841 229.296 150.317 229.151 150.026C229.006 149.735 228.755 149.282 228.592 149.008C228.43 148.735 228.174 148.357 228.028 148.165C227.883 147.973 227.714 147.74 227.656 147.641C227.592 147.542 227.214 147.141 226.812 146.739C226.411 146.338 225.922 145.89 225.73 145.739C225.538 145.593 225.119 145.297 224.799 145.087C224.479 144.872 223.932 144.558 223.578 144.383L223.43 144.313C223.115 144.163 222.788 144.007 222.647 143.947C222.49 143.871 222.053 143.714 221.687 143.598C221.32 143.476 220.913 143.359 220.785 143.336C220.657 143.313 220.424 143.26 220.262 143.214C220.104 143.167 219.616 143.08 219.185 143.01C218.609 142.923 218.045 142.882 217.062 142.871C216.323 142.859 215.485 142.871 215.2 142.9ZM125.2 148.868C125.456 148.787 125.898 148.677 126.189 148.636C126.48 148.589 126.963 148.554 127.266 148.549C127.568 148.549 128.004 148.572 128.225 148.601C128.447 148.63 128.854 148.706 129.127 148.77C129.401 148.839 129.872 149.014 130.174 149.165C130.477 149.316 130.843 149.526 130.989 149.636C131.134 149.747 131.315 149.904 131.396 149.991C131.478 150.073 131.664 150.288 131.809 150.463C131.96 150.637 132.187 151.004 132.315 151.277C132.449 151.55 132.612 151.981 132.676 152.237C132.74 152.493 132.816 152.912 132.839 153.168C132.862 153.424 132.874 153.68 132.868 153.738C132.851 153.831 132.531 153.837 127.033 153.837C121.529 153.837 121.215 153.831 121.215 153.738C121.215 153.68 121.267 153.435 121.337 153.197C121.401 152.958 121.553 152.528 121.669 152.237C121.785 151.952 121.919 151.649 121.971 151.568C121.989 151.541 122.016 151.499 122.05 151.448C122.117 151.344 122.21 151.202 122.291 151.073C122.414 150.881 122.623 150.596 122.751 150.439C122.885 150.282 123.199 149.991 123.455 149.794C123.711 149.59 124.107 149.334 124.328 149.223C124.549 149.113 124.944 148.95 125.2 148.868ZM69.9903 149.555C70.2811 149.439 70.7466 149.299 71.0374 149.241C71.3807 149.171 71.8403 149.13 72.3639 149.13C72.998 149.124 73.2947 149.154 73.8125 149.264C74.1732 149.34 74.691 149.503 74.9644 149.619C75.2378 149.735 75.5927 149.921 75.7498 150.026C75.9069 150.131 76.2385 150.387 76.477 150.591C76.7562 150.829 77.0588 151.166 77.3206 151.539C77.5475 151.859 77.8383 152.342 77.9721 152.615C78.1001 152.889 78.2979 153.447 78.4143 153.866C78.5714 154.43 78.6412 154.837 78.6935 155.466C78.7459 156.123 78.7459 156.49 78.6877 157.124C78.6528 157.572 78.5656 158.136 78.5016 158.375C78.4434 158.613 78.3328 158.98 78.2688 159.189C78.199 159.399 78.0536 159.753 77.9489 159.974C77.8442 160.196 77.7336 160.411 77.7104 160.452C77.6871 160.492 77.5475 160.702 77.3962 160.917C77.2508 161.132 76.9482 161.493 76.7272 161.714C76.5119 161.935 76.1745 162.22 75.9825 162.348C75.7905 162.482 75.4007 162.703 75.1098 162.843C74.819 162.988 74.3361 163.168 74.0336 163.25C73.5391 163.384 73.3645 163.401 72.4046 163.401C71.4854 163.407 71.2585 163.389 70.8338 163.279C70.5604 163.209 70.1182 163.058 69.8448 162.942C69.5714 162.825 69.17 162.61 68.9431 162.459C68.7162 162.313 68.3089 161.964 68.0355 161.691C67.7621 161.417 67.4188 161.01 67.2792 160.789C67.1338 160.568 66.9011 160.149 66.7673 159.858C66.6276 159.567 66.424 158.985 66.0982 157.764V156.368C66.0924 155.239 66.1099 154.878 66.1971 154.477C66.2553 154.203 66.3658 153.773 66.4473 153.517C66.5287 153.261 66.7149 152.801 66.8545 152.499C67 152.196 67.1396 151.934 67.1629 151.917C67.1861 151.9 67.3025 151.742 67.4188 151.568C67.5294 151.393 67.8203 151.056 68.053 150.823C68.2857 150.596 68.5707 150.34 68.6813 150.265C68.7381 150.226 68.8257 150.17 68.9188 150.111C69.0067 150.055 69.0995 149.996 69.1758 149.945C69.3387 149.846 69.6994 149.666 69.9903 149.555ZM155.947 149.212C155.708 149.252 155.313 149.357 155.074 149.444C154.836 149.532 154.487 149.677 154.3 149.77C154.12 149.863 153.829 150.038 153.666 150.154C153.498 150.271 153.329 150.393 153.294 150.428C153.259 150.463 153.131 150.585 153.003 150.695C152.881 150.812 152.654 151.044 152.509 151.219C152.363 151.393 152.154 151.684 152.037 151.859C151.921 152.033 151.776 152.283 151.712 152.411C151.648 152.539 151.554 152.737 151.508 152.848C151.461 152.958 151.368 153.208 151.298 153.4C151.229 153.592 151.118 154.011 151.048 154.331C150.932 154.837 150.914 155.082 150.914 156.251C150.914 157.444 150.932 157.659 151.054 158.229C151.13 158.584 151.293 159.137 151.415 159.468C151.543 159.794 151.752 160.236 151.88 160.457C152.014 160.673 152.258 161.016 152.427 161.225C152.596 161.435 152.898 161.761 153.102 161.953C153.311 162.144 153.66 162.412 153.882 162.546C154.108 162.686 154.58 162.907 154.929 163.046C155.429 163.244 155.708 163.32 156.209 163.378C156.627 163.43 157.11 163.442 157.605 163.419C158.024 163.395 158.53 163.337 158.739 163.291C158.949 163.238 159.327 163.116 159.583 163.011C159.839 162.912 160.258 162.703 160.514 162.546C160.77 162.383 161.171 162.069 161.404 161.842C161.637 161.615 161.968 161.243 162.137 161.022C162.306 160.801 162.527 160.457 162.626 160.265C162.724 160.073 162.87 159.759 162.951 159.567C163.027 159.375 163.161 158.985 163.236 158.695C163.318 158.41 163.411 157.962 163.446 157.706C163.481 157.45 163.521 157.007 163.539 156.717C163.562 156.432 163.551 155.873 163.516 155.483C163.481 155.088 163.399 154.541 163.335 154.262C163.277 153.976 163.167 153.581 163.103 153.371C163.033 153.162 162.876 152.784 162.748 152.528C162.62 152.272 162.34 151.812 162.119 151.51C161.881 151.172 161.543 150.8 161.264 150.561C161.014 150.34 160.746 150.131 160.677 150.096L160.625 150.066L160.555 150.026L160.554 150.026C160.464 149.975 160.346 149.908 160.24 149.846C160.072 149.747 159.833 149.636 159.711 149.596C159.595 149.561 159.496 149.508 159.496 149.474C159.496 149.444 159.449 149.415 159.391 149.415C159.339 149.415 159.083 149.363 158.827 149.293C158.466 149.2 158.14 149.165 157.372 149.148C156.697 149.136 156.244 149.154 155.947 149.212ZM184.919 149.415C185.128 149.346 185.495 149.252 185.733 149.206C186.03 149.154 186.49 149.136 187.159 149.148C187.903 149.165 188.258 149.2 188.584 149.287C188.823 149.351 189.242 149.497 189.515 149.613C189.788 149.73 190.143 149.91 190.3 150.009C190.463 150.113 190.737 150.311 190.911 150.451C191.086 150.591 191.359 150.852 191.516 151.033C191.673 151.213 191.912 151.521 192.046 151.713C192.179 151.905 192.383 152.26 192.499 152.499C192.616 152.737 192.808 153.226 192.924 153.575C193.04 153.93 193.145 154.279 193.157 154.36C193.163 154.442 193.203 154.756 193.244 155.059C193.285 155.408 193.302 155.984 193.279 156.629C193.262 157.188 193.209 157.845 193.163 158.084C193.11 158.322 192.994 158.77 192.895 159.073C192.802 159.375 192.598 159.864 192.453 160.149C192.307 160.44 192.022 160.882 191.819 161.138C191.615 161.394 191.284 161.761 191.08 161.953C190.87 162.144 190.521 162.412 190.3 162.546C190.073 162.68 189.73 162.86 189.527 162.942C189.329 163.023 188.939 163.157 188.66 163.238C188.27 163.349 187.962 163.395 187.362 163.419C186.868 163.442 186.362 163.424 185.995 163.378C185.607 163.331 185.2 163.229 184.774 163.07C184.419 162.942 183.965 162.732 183.755 162.604C183.546 162.47 183.273 162.29 183.145 162.191C183.017 162.098 182.784 161.889 182.633 161.726C182.476 161.563 182.237 161.283 182.103 161.109C181.964 160.934 181.818 160.725 181.777 160.644C181.737 160.562 181.684 160.486 181.661 160.469C181.638 160.452 181.539 160.271 181.446 160.062C181.353 159.852 181.219 159.538 181.149 159.364C181.079 159.189 180.969 158.834 180.905 158.578C180.841 158.322 180.748 157.775 180.695 157.357C180.631 156.845 180.614 156.391 180.637 155.949C180.655 155.588 180.701 155.099 180.73 154.872C180.765 154.64 180.858 154.174 180.945 153.837C181.027 153.499 181.114 153.203 181.143 153.168C181.167 153.139 181.231 152.993 181.283 152.848C181.335 152.702 181.498 152.377 181.649 152.121C181.795 151.865 182.068 151.469 182.249 151.248C182.429 151.027 182.714 150.724 182.889 150.579C183.057 150.433 183.313 150.23 183.459 150.131C183.604 150.026 183.912 149.852 184.134 149.747C184.355 149.636 184.71 149.491 184.919 149.415ZM215.52 149.206C215.282 149.247 214.979 149.316 214.851 149.357C214.723 149.398 214.38 149.538 214.095 149.666C213.81 149.794 213.437 149.991 213.28 150.102C213.117 150.212 212.809 150.468 212.588 150.66C212.367 150.858 212.076 151.161 211.942 151.335C211.808 151.51 211.581 151.853 211.436 152.091C211.296 152.33 211.093 152.737 210.994 152.993C210.889 153.249 210.755 153.656 210.697 153.895C210.633 154.134 210.552 154.529 210.511 154.768C210.464 155.024 210.43 155.646 210.43 156.28C210.43 157.083 210.459 157.496 210.534 157.909C210.592 158.212 210.691 158.631 210.744 158.84C210.802 159.049 210.936 159.428 211.04 159.684C211.151 159.94 211.384 160.382 211.558 160.673C211.739 160.958 212.041 161.353 212.233 161.557C212.425 161.755 212.739 162.04 212.931 162.197C213.123 162.348 213.519 162.598 213.804 162.744C214.095 162.895 214.537 163.081 214.793 163.163C215.049 163.244 215.508 163.343 215.811 163.384C216.16 163.43 216.655 163.442 217.149 163.419C217.58 163.401 218.039 163.355 218.167 163.314C218.246 163.292 218.388 163.251 218.537 163.207L218.667 163.169L218.807 163.128C219.028 163.058 219.4 162.907 219.622 162.796C219.843 162.68 220.186 162.47 220.378 162.331C220.57 162.191 220.896 161.906 221.105 161.697C221.314 161.487 221.611 161.126 221.768 160.905C221.925 160.678 222.152 160.3 222.269 160.062C222.391 159.823 222.536 159.48 222.594 159.305C222.658 159.131 222.722 158.98 222.746 158.974C222.775 158.962 222.792 158.904 222.792 158.84C222.792 158.776 222.85 158.456 222.92 158.13C223.025 157.63 223.048 157.333 223.048 156.338C223.054 155.57 223.025 154.989 222.973 154.709C222.932 154.471 222.862 154.145 222.821 153.982C222.781 153.825 222.687 153.523 222.618 153.313C222.548 153.104 222.408 152.766 222.309 152.557C222.21 152.347 221.989 151.969 221.815 151.713C221.64 151.457 221.361 151.108 221.198 150.94C221.035 150.765 220.704 150.474 220.465 150.288C220.227 150.108 219.924 149.904 219.796 149.834C219.668 149.77 219.366 149.636 219.127 149.543C218.889 149.444 218.505 149.322 218.283 149.27C218.01 149.2 217.562 149.165 216.916 149.148C216.294 149.136 215.799 149.154 215.52 149.206Z" fill="#404040"/>
</svg>
