<svg width="300" height="300" viewBox="0 0 300 300" fill="none" xmlns="http://www.w3.org/2000/svg">
  <path d="M75.2101 129.524C76.687 127.988 78.271 126.333 78.7117 125.869C79.1643 125.393 79.5692 125 79.605 125C79.6407 125 80.0218 125.357 80.4506 125.798C80.8793 126.25 82.2728 127.702 83.5472 129.048C84.8216 130.381 86.4652 132.095 87.2036 132.857C87.9302 133.607 88.9544 134.679 89.4785 135.238C90.0025 135.798 90.4075 136.286 90.3837 136.345C90.3598 136.393 88.6805 136.429 82.9517 136.429V175H76.282V136.429H72.5899C70.5651 136.429 68.8739 136.393 68.8382 136.345C68.8143 136.286 69.6242 135.369 70.6485 134.286C71.6728 133.202 73.7213 131.06 75.2101 129.524Z" fill="#7D7D7D"/>
  <path d="M54.4745 152.167C54.4745 152.107 56.8923 149.536 59.8698 146.441L65.2651 140.81L65.9916 141.571C66.3966 141.976 68.588 144.274 70.8629 146.667C73.1496 149.06 75.2816 151.298 76.2225 152.262L72.5065 152.286C70.5457 152.309 68.9493 152.299 68.8543 152.266C68.9126 152.474 68.8381 159.191 68.8381 159.191C68.8739 159.143 68.8977 162.679 68.8977 175H61.2752V152.262H57.8808C56.0109 152.262 54.4864 152.214 54.4745 152.167Z" fill="#7D7D7D"/>
  <path d="M39.7059 136.25L45.0893 130.619C48.043 127.524 50.5203 125 50.5799 125.024C50.6394 125.047 53.1048 127.571 61.4062 136.25L53.8909 136.309V174.94L47.2212 175V136.309L39.7059 136.25Z" fill="#7D7D7D"/>
  <path fill-rule="evenodd" clip-rule="evenodd" d="M138.036 148.155C138.787 148.179 139.62 148.286 140.001 148.405C140.359 148.512 140.978 148.762 141.371 148.964C141.764 149.155 142.419 149.643 143.586 150.774L143.574 148.512L144.551 148.429C145.099 148.369 146.219 148.333 148.577 148.333V156.845C148.577 162.214 148.529 165.786 148.446 166.524C148.374 167.155 148.219 168.083 148.088 168.572C147.969 169.06 147.636 169.917 147.362 170.476C146.981 171.25 146.659 171.691 145.968 172.381C145.301 173.036 144.789 173.417 144.051 173.798C143.491 174.083 142.526 174.452 141.907 174.619C141.038 174.845 140.359 174.929 138.989 174.976C137.631 175.012 136.869 174.976 135.833 174.822C135.083 174.714 134.022 174.488 133.487 174.333C132.939 174.179 132.165 173.893 131.76 173.714C131.343 173.524 130.676 173.155 129.52 172.381L130.545 170.393C131.116 169.286 131.605 168.381 131.617 168.369C131.64 168.345 131.914 168.512 132.236 168.738C132.546 168.964 133.141 169.31 133.57 169.5C133.999 169.702 134.773 169.976 135.297 170.119C135.821 170.262 136.809 170.405 137.5 170.441C138.298 170.488 139.037 170.464 139.525 170.369C139.954 170.286 140.573 170.095 140.895 169.941C141.228 169.786 141.693 169.452 141.955 169.202C142.205 168.952 142.562 168.429 142.753 168.036C142.943 167.631 143.134 166.929 143.205 166.405C143.277 165.893 143.336 165.262 143.336 164.524L142.717 165.06C142.372 165.357 141.788 165.75 141.431 165.952C141.073 166.143 140.347 166.405 139.823 166.548C139.156 166.714 138.501 166.786 137.655 166.786C136.976 166.786 136.035 166.702 135.571 166.595C135.094 166.488 134.225 166.179 133.629 165.893C133.034 165.607 132.236 165.119 131.843 164.798C131.45 164.476 130.842 163.845 130.497 163.393C130.152 162.929 129.711 162.238 129.52 161.845C129.33 161.452 129.056 160.702 128.913 160.179C128.711 159.417 128.651 158.881 128.651 157.5C128.639 156.202 128.699 155.56 128.853 154.941C128.973 154.488 129.27 153.679 129.52 153.155C129.759 152.631 130.199 151.881 130.497 151.488C130.795 151.095 131.378 150.488 131.795 150.143C132.212 149.798 132.986 149.298 133.51 149.048C134.034 148.798 134.701 148.524 134.999 148.441C135.297 148.369 135.809 148.262 136.131 148.202C136.464 148.155 137.322 148.131 138.036 148.155V148.155ZM136.071 153.417C135.845 153.56 135.428 153.905 135.154 154.191C134.88 154.476 134.511 155.024 134.332 155.417C134.082 155.952 133.987 156.381 133.951 157.083C133.915 157.738 133.963 158.286 134.094 158.81C134.201 159.238 134.463 159.845 134.678 160.167C134.892 160.5 135.356 160.976 135.714 161.25C136.119 161.548 136.667 161.822 137.143 161.952C137.715 162.107 138.191 162.155 138.989 162.119C139.799 162.083 140.216 162 140.716 161.774C141.073 161.607 141.633 161.238 141.943 160.952C142.3 160.619 142.669 160.107 142.896 159.643C143.217 158.976 143.277 158.714 143.324 157.738C143.348 156.952 143.312 156.405 143.181 155.952C143.074 155.595 142.812 155.024 142.586 154.702C142.372 154.369 141.919 153.905 141.597 153.667C141.276 153.417 140.776 153.131 140.478 153.024C140.18 152.917 139.465 152.81 138.87 152.786C138.048 152.75 137.643 152.786 137.143 152.952C136.786 153.072 136.297 153.286 136.071 153.417V153.417Z" fill="#404040"/>
  <path fill-rule="evenodd" clip-rule="evenodd" d="M123.268 139.465C123.732 139.5 124.316 139.619 124.578 139.75C124.84 139.881 125.233 140.191 125.459 140.441C125.685 140.691 125.947 141.084 126.043 141.31C126.138 141.536 126.221 142.072 126.221 142.5C126.221 143.06 126.138 143.453 125.935 143.917C125.769 144.298 125.459 144.726 125.173 144.965C124.911 145.179 124.423 145.453 124.101 145.56C123.696 145.691 123.256 145.726 122.732 145.691C122.303 145.655 121.743 145.536 121.481 145.405C121.219 145.286 120.838 145 120.624 144.786C120.409 144.584 120.147 144.226 120.028 144.012C119.921 143.81 119.814 143.25 119.778 142.798C119.73 142.107 119.766 141.857 120.004 141.322C120.183 140.917 120.493 140.5 120.826 140.215C121.124 139.953 121.6 139.667 121.898 139.572C122.243 139.465 122.72 139.429 123.268 139.465V139.465ZM152.864 141.072H158.105V145.655C158.105 148.179 158.129 150.238 158.164 150.238C158.2 150.238 158.45 150.048 158.736 149.81C159.01 149.584 159.665 149.179 160.189 148.929C160.713 148.667 161.559 148.381 162.071 148.274C162.571 148.179 163.369 148.096 163.822 148.096C164.274 148.096 165.072 148.179 165.584 148.274C166.085 148.369 166.906 148.643 167.395 148.881C168.026 149.203 168.538 149.572 169.134 150.167C169.753 150.786 170.086 151.25 170.408 151.905C170.634 152.393 170.92 153.179 171.039 153.631C171.23 154.369 171.254 155.215 171.325 167.738H166.085L166.049 161.81C166.025 155.905 166.025 155.893 165.739 155.179C165.549 154.703 165.263 154.274 164.882 153.893C164.441 153.476 164.119 153.286 163.619 153.143C163.143 153 162.666 152.965 162.095 153C161.642 153.036 161.023 153.167 160.725 153.298C160.427 153.417 159.927 153.762 159.606 154.06C159.296 154.346 158.903 154.822 158.76 155.119C158.605 155.417 158.403 156.072 158.295 156.584C158.141 157.346 158.105 158.393 158.105 167.738H152.864V141.072ZM255.054 141.072H260.294V167.738H255.054V141.072ZM99.6259 142.5V152.5H110.226V142.679L111.679 142.584C112.489 142.536 113.716 142.5 115.705 142.5V167.738H110.226V157.5H99.6259V167.738H94.1472V142.619L95.1358 142.584C95.6717 142.56 96.8985 142.536 99.6259 142.5ZM181.33 142.5V162.976H193.121V167.738H175.851V142.619L176.84 142.584C177.375 142.56 178.602 142.536 181.33 142.5ZM203.84 148.155C204.733 148.191 205.519 148.298 206.103 148.453C206.591 148.596 207.401 148.917 207.889 149.179C208.378 149.429 209.057 149.869 209.402 150.143C209.747 150.429 210.271 150.953 210.569 151.31C210.879 151.667 211.391 152.5 211.712 153.155C212.117 153.976 212.368 154.703 212.534 155.476C212.701 156.25 212.772 157.084 212.772 159.643H205.924C201.434 159.643 199.076 159.679 199.076 159.762C199.076 159.834 199.183 160.167 199.302 160.5C199.445 160.881 199.79 161.405 200.172 161.834C200.612 162.31 201.053 162.643 201.636 162.929C202.268 163.25 202.708 163.369 203.483 163.441C204.042 163.5 204.817 163.5 205.21 163.441C205.603 163.393 206.162 163.262 206.46 163.155C206.758 163.048 207.187 162.846 207.413 162.703C207.639 162.56 208.032 162.262 208.282 162.024C208.568 161.762 208.771 161.655 208.83 161.726C208.89 161.798 209.497 162.5 210.2 163.298C210.891 164.107 211.462 164.846 211.462 164.941C211.462 165.036 211.129 165.417 210.712 165.786C210.283 166.179 209.533 166.667 208.902 166.976C208.306 167.262 207.508 167.584 207.115 167.679C206.722 167.786 205.781 167.917 205.031 167.976C204.185 168.036 203.292 168.036 202.708 167.976C202.184 167.905 201.434 167.774 201.041 167.679C200.648 167.572 200.005 167.357 199.612 167.191C199.219 167.036 198.599 166.726 198.242 166.512C197.885 166.31 197.123 165.679 196.563 165.119C195.872 164.429 195.384 163.822 195.038 163.215C194.776 162.726 194.419 161.905 194.252 161.393C194.062 160.786 193.919 159.976 193.835 159.012C193.776 158.107 193.764 157.226 193.835 156.667C193.895 156.179 194.062 155.405 194.205 154.941C194.336 154.488 194.705 153.619 195.003 153.036C195.443 152.179 195.765 151.75 196.634 150.893C197.242 150.274 198.04 149.631 198.48 149.369C198.909 149.131 199.659 148.798 200.148 148.631C200.636 148.465 201.363 148.286 201.756 148.215C202.149 148.155 203.09 148.131 203.84 148.155ZM201.101 152.988C200.803 153.167 200.386 153.512 200.16 153.762C199.933 154.024 199.624 154.488 199.469 154.822C199.326 155.143 199.159 155.619 199.112 155.869L199.016 156.31H207.83C207.687 155.619 207.52 155.131 207.353 154.786C207.187 154.453 206.817 153.929 206.52 153.631C206.222 153.334 205.674 152.953 205.293 152.774C204.781 152.536 204.376 152.453 203.661 152.417C203.125 152.405 202.482 152.453 202.172 152.536C201.875 152.619 201.398 152.822 201.101 152.988V152.988ZM243.024 148.155C244.025 148.191 244.799 148.286 245.383 148.453C245.847 148.584 246.633 148.881 247.098 149.119C247.574 149.357 248.289 149.798 248.67 150.107C249.063 150.405 249.67 151.036 250.028 151.488C250.385 151.941 250.849 152.703 251.064 153.155C251.29 153.607 251.576 154.393 251.719 154.881C251.921 155.548 252.005 156.262 252.136 159.643H238.379L238.451 159.965C238.498 160.155 238.701 160.607 238.903 161C239.106 161.381 239.499 161.905 239.773 162.155C240.059 162.417 240.547 162.75 240.88 162.917C241.202 163.084 241.726 163.274 242.036 163.346C242.357 163.417 243.084 163.465 243.679 163.465C244.275 163.453 245.037 163.369 245.406 163.262C245.764 163.155 246.3 162.941 246.597 162.762C246.895 162.596 247.336 162.262 247.586 162.024C247.979 161.655 248.062 161.631 248.205 161.786C248.289 161.881 248.932 162.631 250.885 164.941L250.385 165.453C250.099 165.738 249.527 166.203 249.099 166.488C248.67 166.774 247.967 167.143 247.514 167.31C247.074 167.476 246.466 167.679 246.145 167.75C245.835 167.822 244.99 167.917 244.275 167.976C243.429 168.048 242.607 168.036 241.952 167.953C241.393 167.893 240.499 167.703 239.951 167.548C239.416 167.393 238.689 167.119 238.344 166.953C238.01 166.774 237.427 166.429 237.069 166.191C236.712 165.941 236.116 165.429 235.735 165.036C235.366 164.655 234.866 164.024 234.616 163.631C234.366 163.238 234.044 162.619 233.877 162.262C233.722 161.905 233.484 161.155 233.353 160.596C233.175 159.834 233.115 159.215 233.115 158.096C233.127 157.226 233.21 156.238 233.318 155.715C233.425 155.226 233.651 154.476 233.818 154.048C233.985 153.619 234.378 152.869 234.699 152.381C235.009 151.893 235.628 151.143 236.081 150.715C236.521 150.286 237.272 149.715 237.724 149.441C238.177 149.155 238.88 148.822 239.273 148.691C239.666 148.548 240.333 148.357 240.761 148.274C241.285 148.155 242.012 148.119 243.024 148.155V148.155ZM240.368 153.012C240.059 153.191 239.606 153.584 239.356 153.905C239.106 154.215 238.784 154.774 238.641 155.155C238.498 155.524 238.379 155.976 238.379 156.167V156.488C240.916 156.346 242.905 156.31 244.43 156.31H247.193C246.943 155.429 246.716 154.893 246.526 154.536C246.335 154.191 245.966 153.703 245.704 153.476C245.442 153.238 244.93 152.917 244.573 152.75C244.072 152.524 243.679 152.441 242.905 152.417C242.31 152.393 241.702 152.441 241.416 152.536C241.154 152.619 240.69 152.834 240.38 153.012H240.368ZM120.338 148.334H125.578V167.738H120.338V148.334ZM216.453 148.417C217.406 148.453 218.18 148.476 218.192 148.488C218.192 148.5 219.287 151.393 220.633 154.917C221.967 158.429 223.087 161.31 223.122 161.31C223.158 161.31 223.468 160.584 223.825 159.679C224.182 158.774 225.326 155.893 228.22 148.512L229.161 148.441C229.673 148.405 230.781 148.393 231.638 148.429C232.496 148.453 233.198 148.5 233.21 148.524C233.234 148.548 232.674 150.036 231.984 151.81C231.281 153.596 229.613 157.846 228.28 161.25C226.934 164.655 225.814 167.512 225.79 167.584C225.755 167.703 225.088 167.738 223.003 167.738C220.919 167.738 220.252 167.703 220.216 167.584C220.193 167.512 219.395 165.465 218.442 163.036C217.489 160.607 215.822 156.357 214.738 153.572C213.642 150.786 212.761 148.5 212.761 148.476C212.761 148.465 213.201 148.429 213.737 148.405C214.285 148.381 215.5 148.393 216.453 148.417V148.417Z" fill="#404040"/>
</svg>
