<svg width="300" height="300" viewBox="0 0 300 300" fill="none" xmlns="http://www.w3.org/2000/svg">
  <path d="M185.301 78.8888C190.43 73.5554 195.931 67.8087 197.461 66.1963C199.033 64.5426 200.44 63.1782 200.564 63.1782C200.688 63.1782 202.011 64.4185 203.5 65.9482C204.989 67.5193 209.829 72.5632 214.255 77.235C218.68 81.8655 224.388 87.819 226.953 90.465C229.476 93.0696 233.033 96.7905 234.853 98.7337C236.673 100.677 238.079 102.372 237.996 102.579C237.914 102.744 232.082 102.868 212.186 102.868V236.821H189.024V102.868H176.201C169.17 102.868 163.296 102.744 163.172 102.579C163.089 102.372 165.902 99.1884 169.459 95.4262C173.016 91.6639 180.131 84.2221 185.301 78.8888Z" fill="#3B9E65"/>
  <path d="M113.289 157.524C113.289 157.318 121.686 148.387 132.026 137.638L150.763 118.083L153.286 120.729C154.693 122.134 162.303 130.113 170.204 138.424C178.145 146.734 185.549 154.506 188.817 157.855L175.912 157.938C169.102 158.017 163.558 157.982 163.228 157.869C163.431 158.59 163.172 181.917 163.172 181.917C163.296 181.752 163.379 194.031 163.379 236.821H136.907V157.855H125.119C118.625 157.855 113.33 157.69 113.289 157.524Z" fill="#3B9E65"/>
  <path d="M62 102.247L80.6958 82.6918C90.9536 71.9425 99.557 63.1777 99.7638 63.2603C99.9706 63.343 108.533 72.1079 137.362 102.247L111.263 102.454V236.614L88.0996 236.82V102.454L62 102.247Z" fill="#3B9E65"/>
</svg>
