<svg width="300" height="300" viewBox="0 0 300 300" fill="none" xmlns="http://www.w3.org/2000/svg">
  <path d="M249.109 129.4C250.207 129.4 251.157 130.167 251.34 131.243C252.416 137.262 253 143.74 253 150C253.031 175.347 243.684 199.81 226.758 218.678C226.365 219.114 225.817 219.379 225.232 219.417C224.646 219.456 224.069 219.264 223.622 218.884L195.64 195.194C195.399 194.987 195.203 194.733 195.062 194.447C194.922 194.162 194.841 193.851 194.824 193.534C194.807 193.216 194.854 192.898 194.963 192.6C195.072 192.301 195.24 192.027 195.457 191.795C201.092 185.661 205.428 178.452 208.206 170.6H152.289C151.682 170.6 151.1 170.359 150.67 169.93C150.241 169.5 150 168.918 150 168.311V131.689C150 130.43 151.03 129.4 152.289 129.4H249.109ZM178.302 204.933C178.714 204.726 179.177 204.642 179.636 204.69C180.094 204.739 180.529 204.919 180.889 205.208L210.278 230.077C210.54 230.295 210.749 230.57 210.889 230.882C211.028 231.193 211.095 231.532 211.084 231.873C211.073 232.214 210.984 232.548 210.825 232.849C210.665 233.151 210.439 233.412 210.163 233.613C192.651 246.249 171.596 253.034 150 253C132.835 253.001 115.941 248.713 100.855 240.524C85.769 232.336 72.9686 220.506 63.6174 206.112C63.3112 205.636 63.1954 205.062 63.2929 204.504C63.3905 203.947 63.6942 203.446 64.1438 203.102L93.2699 180.648C93.5377 180.448 93.8448 180.307 94.1711 180.234C94.4974 180.161 94.8354 180.158 95.1629 180.225C95.4905 180.292 95.8001 180.428 96.0715 180.623C96.3429 180.818 96.5699 181.068 96.7376 181.358C104.749 194.962 117.663 204.985 132.83 209.369C147.998 213.753 164.268 212.166 178.302 204.933ZM89.1156 160.597C89.1953 161.017 89.1562 161.45 89.0025 161.849C88.8488 162.247 88.5867 162.595 88.2458 162.852L56.9453 186.965C56.669 187.182 56.3458 187.331 56.0015 187.4C55.6572 187.469 55.3015 187.456 54.9631 187.363C54.6246 187.269 54.3128 187.098 54.0528 186.862C53.7929 186.626 53.5919 186.332 53.4661 186.004C49.1798 174.485 46.9899 162.291 47 150C47 136.816 49.4835 124.204 54.004 112.611C54.131 112.291 54.3297 112.005 54.5848 111.775C54.8399 111.544 55.1446 111.376 55.4753 111.281C55.806 111.187 56.1539 111.171 56.4922 111.233C56.8304 111.294 57.1499 111.433 57.4259 111.638L88.6921 134.573C89.436 135.111 89.7793 136.061 89.5848 136.953C87.904 144.73 87.7522 152.759 89.1156 160.597ZM94.4601 117.509C95.5588 118.31 97.1038 117.99 97.8362 116.845C103.417 108.066 111.124 100.838 120.243 95.8303C129.362 90.8228 139.597 88.1983 150 88.2C164.386 88.1952 178.318 93.2374 189.369 102.448C189.815 102.826 190.386 103.024 190.97 103.003C191.555 102.982 192.11 102.743 192.527 102.334L218.461 76.3893C218.678 76.1733 218.849 75.9152 218.963 75.6308C219.077 75.3465 219.132 75.0419 219.125 74.7355C219.117 74.4292 219.047 74.1276 218.919 73.8492C218.791 73.5708 218.608 73.3214 218.38 73.1162C199.582 56.2855 175.232 46.9858 150 47C133.058 46.9887 116.375 51.1612 101.434 59.1472C86.492 67.1331 73.7536 78.6853 64.3498 92.7778C64.0336 93.2619 63.9155 93.8489 64.0199 94.4176C64.1243 94.9863 64.4431 95.4932 64.9106 95.8334L94.4601 117.509Z" fill="#3B9E65"/>
</svg>
