<svg width="300" height="300" viewBox="0 0 300 300" fill="none" xmlns="http://www.w3.org/2000/svg">
  <path d="M221.444 155.557L225.671 158.375C224.299 160.396 221.018 163.863 215.344 163.863C208.299 163.863 203.052 158.412 203.052 151.478C203.052 144.099 208.355 139.093 214.751 139.093C221.185 139.093 224.336 144.21 225.356 146.973L225.912 148.382L209.337 155.242C210.598 157.726 212.564 158.987 215.344 158.987C218.126 158.987 220.054 157.615 221.444 155.557ZM208.448 151.089L219.516 146.491C218.904 144.952 217.087 143.858 214.918 143.858C212.156 143.858 208.318 146.306 208.448 151.089Z" fill="#7D7D7D"/>
  <path d="M195.062 126.468H200.401V162.733H195.062V126.468Z" fill="#262626"/>
  <path d="M186.644 140.058H191.798V162.084C191.798 171.224 186.403 174.987 180.025 174.987C174.018 174.987 170.403 170.946 169.05 167.664L173.777 165.699C174.63 167.72 176.688 170.112 180.025 170.112C184.123 170.112 186.644 167.571 186.644 162.825V161.045H186.459C185.235 162.528 182.899 163.863 179.933 163.863C173.74 163.863 168.067 158.468 168.067 151.516C168.067 144.526 173.74 139.075 179.933 139.075C182.881 139.075 185.235 140.392 186.459 141.838H186.644V140.058ZM187.015 151.516C187.015 147.14 184.104 143.951 180.396 143.951C176.651 143.951 173.499 147.14 173.499 151.516C173.499 155.835 176.651 158.969 180.396 158.969C184.104 158.987 187.015 155.835 187.015 151.516" fill="#404040"/>
  <path d="M138.755 151.423C138.755 158.561 133.193 163.808 126.37 163.808C119.547 163.808 113.985 158.542 113.985 151.423C113.985 144.248 119.547 139.02 126.37 139.02C133.193 139.02 138.755 144.248 138.755 151.423ZM133.341 151.423C133.341 146.973 130.115 143.914 126.37 143.914C122.625 143.914 119.399 146.973 119.399 151.423C119.399 155.835 122.625 158.932 126.37 158.932C130.115 158.932 133.341 155.835 133.341 151.423Z" fill="#7D7D7D"/>
  <path d="M165.805 151.478C165.805 158.616 160.243 163.863 153.42 163.863C146.597 163.863 141.035 158.616 141.035 151.478C141.035 144.303 146.597 139.093 153.42 139.093C160.243 139.093 165.805 144.285 165.805 151.478ZM160.373 151.478C160.373 147.029 157.147 143.969 153.401 143.969C149.656 143.969 146.43 147.029 146.43 151.478C146.43 155.891 149.657 158.987 153.401 158.987C157.165 158.987 160.373 155.872 160.373 151.478Z" fill="#262626"/>
  <path d="M93.628 158.431C85.8595 158.431 79.7786 152.164 79.7786 144.396C79.7786 136.628 85.8595 130.361 93.628 130.361C97.8181 130.361 100.877 132.011 103.139 134.125L106.866 130.398C103.714 127.376 99.5053 125.077 93.628 125.077C82.986 125.077 74.0309 133.754 74.0309 144.396C74.0309 155.037 82.986 163.715 93.628 163.715C99.3756 163.715 103.714 161.824 107.107 158.301C110.592 154.815 111.668 149.921 111.668 145.953C111.668 144.711 111.519 143.432 111.352 142.486H93.628V147.64H106.254C105.883 150.867 104.863 153.073 103.362 154.574C101.545 156.41 98.6711 158.431 93.628 158.431Z" fill="#404040"/>
</svg>
