<svg width="300" height="300" viewBox="0 0 300 300" fill="none" xmlns="http://www.w3.org/2000/svg">
  <path d="M243.786 144.403C238.812 135.867 231.814 129.024 223.067 123.872C216.529 120.076 209.751 117.667 202.112 116.632V89.5094C209.751 86.2745 214.491 79.1143 214.491 70.761C214.491 59.3754 205.337 50.149 193.931 50.149C182.515 50.149 173.201 59.3754 173.201 70.761C173.201 79.1143 177.668 86.2745 185.306 89.5094V116.645C179.195 117.525 172.858 119.426 167.071 122.345C155.251 113.391 116.492 84.0178 93.8183 66.8617C94.356 64.928 94.7701 62.9349 94.7701 60.8321C94.7701 48.2214 84.531 38 71.8827 38C59.2344 38 49 48.2214 49 60.8321C49 73.4428 59.2452 83.6658 71.8935 83.6658C76.2078 83.6658 80.1983 82.4072 83.6419 80.3379L88.4268 83.9584L154.175 131.207C150.7 134.39 147.462 138.011 144.873 142.073C139.625 150.355 136.418 159.467 136.418 169.407V171.481C136.418 178.458 137.747 185.045 140.012 191.233C142.005 196.636 144.92 201.549 148.53 205.991L126.709 227.808C123.547 226.634 120.112 226.393 116.816 227.114C113.52 227.835 110.502 229.487 108.123 231.874C106.475 233.509 105.169 235.454 104.281 237.596C103.392 239.738 102.939 242.035 102.947 244.353C102.948 249.066 104.789 253.496 108.132 256.828C109.77 258.473 111.72 259.777 113.867 260.664C116.014 261.552 118.317 262.006 120.641 262C122.966 262.007 125.27 261.553 127.418 260.665C129.566 259.778 131.516 258.473 133.155 256.828C134.803 255.194 136.109 253.25 136.998 251.108C137.887 248.967 138.341 246.671 138.334 244.353C138.334 242.529 138.051 240.749 137.52 239.058L160.074 216.56C163.166 218.69 166.506 220.483 170.096 222.03C177.177 225.084 184.993 226.944 193.547 226.944H195.115C204.572 226.944 213.492 224.729 221.878 220.197C230.714 215.408 237.631 208.859 242.856 200.498C248.108 192.114 251 182.851 251 172.66V172.151C251 162.126 248.673 152.877 243.786 144.403ZM216.228 191.599C210.107 198.384 203.07 202.564 195.115 202.564H193.804C189.26 202.564 184.816 201.311 180.465 199.033C175.561 196.525 171.833 192.947 168.782 188.417C165.629 183.971 163.918 179.116 163.918 173.969V172.405C163.918 167.345 164.891 162.547 167.345 158.015C169.968 153.061 173.511 149.209 178.222 146.146C182.848 143.105 187.789 141.613 193.292 141.613H193.804C198.794 141.613 203.517 142.594 207.975 144.869C212.517 147.295 216.228 150.609 219.105 154.969C221.899 159.33 223.562 164.034 224.096 169.158C224.18 170.223 224.223 171.314 224.223 172.357C224.223 179.311 221.559 185.752 216.228 191.599Z" fill="#3B9E65"/>
</svg>
