<svg width="300" height="300" viewBox="0 0 300 300" fill="none" xmlns="http://www.w3.org/2000/svg">
  <g clip-path="url(#clip0_49_682)">
    <path d="M64.0826 134.288H70.0754V147.597H82.7146V134.288H88.7152V166.959H82.7146V153.37H70.0754V166.959H64.0826V134.288ZM107.7 156.317C107.7 159.052 105.471 161.278 102.736 161.278C99.9998 161.278 97.7722 159.052 97.7722 156.317V142.252H92.0889V156.317C92.0889 162.185 96.8654 166.959 102.736 166.959C108.605 166.959 113.382 162.185 113.382 156.317V142.252H107.7V156.317ZM129.247 142.416C126.428 142.416 124.46 143.234 122.56 145.099V134.288H116.858V154.323C116.858 161.823 122.282 166.959 128.376 166.959C135.151 166.959 141.086 161.731 141.086 154.688C141.086 147.734 135.613 142.416 129.247 142.416ZM129.389 161.686C125.525 161.686 122.571 158.46 122.571 154.688C122.571 150.915 125.525 147.688 129.389 147.688C132.662 147.688 135.619 150.915 135.619 154.688C135.619 158.46 132.662 161.686 129.389 161.686ZM150.663 143.852C150.663 140.987 152.572 140.079 154.663 140.079C156.346 140.079 158.574 141.351 160.027 142.897L163.754 138.534C161.892 136.035 158.119 134.307 155.027 134.307C148.843 134.307 144.388 137.898 144.388 143.852C144.388 154.896 157.982 151.395 157.982 157.578C157.982 159.484 156.119 161.168 153.983 161.168C150.617 161.168 149.526 159.531 147.98 157.804L143.842 162.075C146.481 165.303 149.753 166.939 153.664 166.939C159.528 166.939 164.257 163.304 164.257 157.622C164.257 145.351 150.663 149.169 150.663 143.852ZM179.267 142.096C173.174 142.096 167.749 147.229 167.749 154.73V174.817H173.451V163.955C175.351 165.818 177.318 166.637 180.138 166.637C186.504 166.637 191.978 161.321 191.978 154.367C191.978 147.322 186.04 142.096 179.267 142.096ZM180.28 161.366C176.417 161.366 173.462 158.136 173.462 154.367C173.462 150.593 176.417 147.367 180.28 147.367C183.553 147.367 186.51 150.593 186.51 154.367C186.51 158.136 183.553 161.366 180.28 161.366ZM233.947 161.686C230.584 161.686 229.629 160.232 229.629 158.004V148.142H234.856V143.144H229.629V136.553L223.857 139.143V159.231C223.857 164.368 227.401 166.959 232.264 166.959C232.991 166.959 233.993 166.912 234.539 166.777L235.949 161.596C235.312 161.64 234.585 161.686 233.947 161.686Z" fill="#404040"/>
    <path d="M218.91 148.433C217.817 146.553 216.28 145.046 214.358 143.912C212.921 143.076 211.432 142.545 209.753 142.317V136.344C211.432 135.632 212.474 134.055 212.474 132.215C212.474 129.708 210.462 127.676 207.956 127.676C205.447 127.676 203.401 129.708 203.401 132.215C203.401 134.055 204.382 135.632 206.061 136.344V142.32C204.718 142.514 203.326 142.932 202.054 143.575C199.457 141.604 190.94 135.135 185.958 131.357C186.076 130.931 186.167 130.492 186.167 130.029C186.167 127.251 183.917 125 181.138 125C178.359 125 176.11 127.251 176.11 130.029C176.11 132.806 178.361 135.057 181.141 135.057C182.089 135.057 182.965 134.78 183.722 134.324L184.773 135.122L199.22 145.527C198.457 146.228 197.745 147.025 197.176 147.92C196.023 149.744 195.319 151.75 195.319 153.939V154.396C195.319 155.933 195.611 157.383 196.108 158.746C196.546 159.936 197.187 161.018 197.98 161.996L193.185 166.801C192.49 166.542 191.736 166.489 191.011 166.648C190.287 166.807 189.624 167.171 189.101 167.696C188.739 168.056 188.452 168.485 188.257 168.956C188.062 169.428 187.962 169.934 187.964 170.444C187.964 171.482 188.369 172.458 189.103 173.192C189.463 173.554 189.892 173.841 190.363 174.037C190.835 174.232 191.341 174.332 191.852 174.331C192.363 174.332 192.869 174.232 193.341 174.037C193.813 173.841 194.241 173.554 194.602 173.192C194.964 172.832 195.251 172.404 195.446 171.932C195.641 171.46 195.741 170.955 195.74 170.444C195.74 170.043 195.677 169.651 195.561 169.278L200.516 164.324C201.196 164.793 201.93 165.188 202.719 165.528C204.275 166.201 205.992 166.611 207.872 166.611H208.216C210.294 166.611 212.254 166.123 214.097 165.125C216.038 164.07 217.558 162.628 218.706 160.786C219.86 158.94 220.496 156.9 220.496 154.656V154.544C220.496 152.336 219.984 150.299 218.91 148.433ZM212.855 158.827C211.51 160.321 209.964 161.241 208.216 161.241H207.928C206.93 161.241 205.953 160.966 204.997 160.464C203.919 159.912 203.1 159.124 202.43 158.126C201.737 157.147 201.361 156.078 201.361 154.944V154.6C201.361 153.485 201.575 152.429 202.114 151.431C202.69 150.34 203.469 149.491 204.504 148.817C205.521 148.147 206.606 147.819 207.815 147.819H207.928C209.024 147.819 210.062 148.035 211.042 148.536C212.04 149.07 212.855 149.8 213.487 150.76C214.101 151.72 214.467 152.756 214.584 153.885C214.603 154.119 214.612 154.36 214.612 154.589C214.612 156.121 214.026 157.539 212.855 158.827Z" fill="#7D7D7D"/>
  </g>
  <defs>
    <clipPath id="clip0_49_682">
      <rect width="171.875" height="50" fill="white" transform="translate(64.0625 125)"/>
    </clipPath>
  </defs>
</svg>
