<svg width="164" height="41" viewBox="0 0 164 41" fill="none" xmlns="http://www.w3.org/2000/svg">
  <path d="M2.9152 10.7087C4.52549 10.7087 5.83041 12.0136 5.83041 13.6239V37.5848C5.83041 39.1951 4.52549 40.5 2.9152 40.5C1.30492 40.5 0 39.1951 0 37.5848V13.6239C0 12.0136 1.30492 10.7087 2.9152 10.7087Z" fill="#3B9E65"/>
  <path d="M2.9152 0.5C1.30492 0.5 0 1.80493 0 3.41521C0 5.02549 1.30492 6.33041 2.9152 6.33041C4.52549 6.33041 5.83041 5.02549 5.83041 3.41521C5.83041 1.80493 4.52549 0.5 2.9152 0.5Z" fill="#3B9E65"/>
  <path d="M88.4228 22.4266C86.8125 22.4266 85.5076 23.7315 85.5076 25.3418C85.5076 26.9521 86.8125 28.257 88.4228 28.257C90.0331 28.257 91.338 26.9521 91.338 25.3418C91.338 23.7315 90.0331 22.4266 88.4228 22.4266Z" fill="#3B9E65"/>
  <path d="M147.874 22.4266C146.263 22.4266 144.958 23.7315 144.958 25.3418C144.958 26.9521 146.263 28.257 147.874 28.257C149.484 28.257 150.789 26.9521 150.789 25.3418C150.789 23.7315 149.484 22.4266 147.874 22.4266Z" fill="#3B9E65"/>
  <path d="M66.6939 40.4407C65.0836 40.4407 63.7787 39.1358 63.7787 37.5255V25.9811C63.7787 22.7166 63.0691 20.2012 61.6521 18.4327C60.233 16.6643 58.2031 15.7812 55.5603 15.7812C52.9175 15.7812 51.0414 16.6555 49.7013 18.4042C48.3613 20.1529 47.689 22.699 47.689 26.0404V37.699C47.689 39.239 46.4324 40.4846 44.8903 40.467C43.3722 40.4517 42.1508 39.217 42.1508 37.699V24.3488C42.1508 20.5022 43.4052 17.2662 45.9118 14.6432C48.4184 12.0202 51.8301 10.7087 56.1425 10.7087C56.7642 10.7087 57.3661 10.7284 57.9505 10.768C58.5326 10.8075 59.2993 10.9327 60.2528 11.1458C61.204 11.3589 62.0805 11.6423 62.8758 11.9916C63.671 12.3409 64.508 12.8572 65.3824 13.536C66.2567 14.217 66.9861 15.0232 67.5682 15.9569C68.1504 16.8884 68.6359 18.0747 69.0247 19.5136C69.4136 20.9525 69.6069 22.565 69.6069 24.351V37.5277C69.6069 39.138 68.302 40.4429 66.6917 40.4429" fill="#3B9E65"/>
  <path d="M34.9496 40.4407H34.6596C33.1306 40.4407 31.8894 39.2017 31.8894 37.6705V25.9811C31.8894 22.7166 31.1798 20.2012 29.7606 18.4327C28.3415 16.6643 26.3116 15.7812 23.6688 15.7812C21.026 15.7812 19.1499 16.6555 17.8098 18.4042C16.4697 20.1529 15.7975 22.699 15.7975 26.0404V37.699C15.7975 39.239 14.5387 40.4846 12.9987 40.467C11.4807 40.4517 10.2593 39.217 10.2593 37.699V24.3488C10.2593 20.5022 11.5137 17.2662 14.0203 14.6432C16.5269 12.0202 19.9364 10.7087 24.2509 10.7087C24.8726 10.7087 25.4768 10.7284 26.0589 10.768C26.6411 10.8075 27.4078 10.9327 28.3612 11.1458C29.3125 11.3589 30.189 11.6423 30.9843 11.9916C31.7795 12.3409 32.6165 12.8572 33.4909 13.536C34.3652 14.217 35.0946 15.0232 35.6767 15.9569C36.2589 16.8884 36.7444 18.0747 37.1332 19.5136C37.522 20.9525 37.7154 22.565 37.7154 24.351V37.6727C37.7154 39.2017 36.4764 40.4429 34.9452 40.4429" fill="#3B9E65"/>
  <path d="M77.7242 14.6432C80.6965 11.6708 84.262 10.1836 88.4228 10.1836C92.5836 10.1836 96.1469 11.6708 99.1214 14.6432C102.094 17.6177 103.581 21.1832 103.581 25.3418C103.581 29.5004 102.094 33.0659 99.1214 36.0404C96.1469 39.0127 92.5814 40.5 88.4228 40.5C84.2642 40.5 80.6987 39.0127 77.7242 36.0404C74.7518 33.0681 73.2646 29.5026 73.2646 25.3418C73.2646 21.181 74.7518 17.6177 77.7242 14.6432ZM95.0089 18.3448C93.3371 16.4797 91.1425 15.5461 88.4228 15.5461C85.7031 15.5461 83.4865 16.4797 81.7773 18.3448C80.066 20.2099 79.2114 22.543 79.2114 25.3396C79.2114 28.1362 80.066 30.4692 81.7773 32.3343C83.4865 34.1994 85.7009 35.1331 88.4228 35.1331C91.1447 35.1331 93.3393 34.1994 95.0089 32.3343C96.6807 30.4692 97.5177 28.1362 97.5177 25.3396C97.5177 22.543 96.6807 20.2099 95.0089 18.3448Z" fill="#3B9E65"/>
  <path d="M137.175 14.6432C140.15 11.6708 143.713 10.1836 147.874 10.1836C152.035 10.1836 155.598 11.6708 158.572 14.6432C161.545 17.6177 163.032 21.1832 163.032 25.3418C163.032 29.5004 161.545 33.0659 158.572 36.0404C155.6 39.0127 152.032 40.5 147.874 40.5C143.715 40.5 140.15 39.0127 137.175 36.0404C134.203 33.0681 132.716 29.5026 132.716 25.3418C132.716 21.181 134.203 17.6177 137.175 14.6432ZM154.46 18.3448C152.788 16.4797 150.593 15.5461 147.874 15.5461C145.154 15.5461 142.937 16.4797 141.228 18.3448C139.517 20.2099 138.662 22.543 138.662 25.3396C138.662 28.1362 139.517 30.4692 141.228 32.3343C142.937 34.1994 145.152 35.1331 147.874 35.1331C150.596 35.1331 152.79 34.1994 154.46 32.3343C156.132 30.4692 156.969 28.1362 156.969 25.3396C156.969 22.543 156.132 20.2099 154.46 18.3448Z" fill="#3B9E65"/>
  <path d="M107.518 11.3501C108.706 11.3501 109.77 12.0839 110.191 13.1933L118.293 34.4938H118.467L126.621 13.0527C127.012 12.0267 127.994 11.3501 129.091 11.3501C130.94 11.3501 132.219 13.2021 131.562 14.9332L123.161 37.0378C122.371 39.1204 120.374 40.4978 118.144 40.4978C115.914 40.4978 113.917 39.1204 113.126 37.0378L104.84 15.2275C104.128 13.3558 105.512 11.3501 107.516 11.3501" fill="#3B9E65"/>
</svg>
