<svg width="300" height="300" viewBox="0 0 300 300" fill="none" xmlns="http://www.w3.org/2000/svg">
  <path d="M161.617 37C174.328 37.0339 180.78 37.1017 186.351 37.2599L188.543 37.339C191.074 37.4294 193.571 37.5424 196.588 37.678C208.611 38.243 216.814 40.1413 224.012 42.9324C231.47 45.8025 237.752 49.6896 244.035 55.9609C249.783 61.6078 254.229 68.4412 257.063 75.9841C259.854 83.182 261.752 91.3856 262.317 103.42C262.453 106.426 262.566 108.923 262.656 111.465L262.724 113.657C262.893 119.217 262.961 125.669 262.984 138.381L262.995 146.811V161.613C263.023 169.855 262.936 178.098 262.735 186.337L262.667 188.529C262.577 191.072 262.464 193.569 262.328 196.575C261.763 208.609 259.842 216.801 257.063 224.01C254.229 231.553 249.783 238.387 244.035 244.034C238.388 249.782 231.555 254.228 224.012 257.062C216.814 259.853 208.611 261.752 196.588 262.317L188.543 262.656L186.351 262.723C180.78 262.882 174.328 262.961 161.617 262.983L153.187 262.995H138.396C130.151 263.024 121.905 262.937 113.662 262.735L111.47 262.667C108.787 262.565 106.106 262.448 103.424 262.317C91.4019 261.752 83.1985 259.853 75.9895 257.062C68.4508 254.227 61.6216 249.78 55.9782 244.034C50.2261 238.388 45.776 231.554 42.9386 224.01C40.1477 216.813 38.2494 208.609 37.6844 196.575L37.3454 188.529L37.2889 186.337C37.0806 178.098 36.9864 169.856 37.0064 161.613V138.381C36.9752 130.139 37.058 121.897 37.255 113.657L37.3341 111.465C37.4245 108.923 37.5375 106.426 37.6731 103.42C38.2381 91.3856 40.1364 83.1933 42.9273 75.9841C45.7713 68.4381 50.2293 61.6044 55.9895 55.9609C61.6296 50.2156 68.4549 45.7694 75.9895 42.9324C83.1985 40.1413 91.3906 38.243 103.424 37.678C106.43 37.5424 108.939 37.4294 111.47 37.339L113.662 37.2712C121.901 37.0704 130.143 36.9838 138.385 37.0113L161.617 37ZM150.001 93.4986C135.017 93.4986 120.646 99.4511 110.051 110.047C99.4559 120.642 93.5036 135.013 93.5036 149.997C93.5036 164.982 99.4559 179.352 110.051 189.948C120.646 200.543 135.017 206.496 150.001 206.496C164.985 206.496 179.355 200.543 189.95 189.948C200.546 179.352 206.498 164.982 206.498 149.997C206.498 135.013 200.546 120.642 189.95 110.047C179.355 99.4511 164.985 93.4986 150.001 93.4986ZM150.001 116.098C154.452 116.097 158.86 116.973 162.973 118.676C167.086 120.379 170.824 122.876 173.972 126.023C177.12 129.17 179.618 132.907 181.322 137.019C183.026 141.132 183.904 145.54 183.905 149.992C183.905 154.443 183.029 158.852 181.326 162.965C179.624 167.078 177.127 170.815 173.98 173.964C170.833 177.112 167.096 179.61 162.984 181.314C158.871 183.018 154.464 183.896 150.012 183.896C141.022 183.896 132.399 180.325 126.042 173.968C119.685 167.61 116.114 158.988 116.114 149.997C116.114 141.007 119.685 132.384 126.042 126.027C132.399 119.67 141.022 116.098 150.012 116.098M209.334 76.549C205.588 76.549 201.995 78.0372 199.347 80.6861C196.698 83.3349 195.21 86.9276 195.21 90.6737C195.21 94.4198 196.698 98.0125 199.347 100.661C201.995 103.31 205.588 104.798 209.334 104.798C213.08 104.798 216.673 103.31 219.321 100.661C221.97 98.0125 223.458 94.4198 223.458 90.6737C223.458 86.9276 221.97 83.3349 219.321 80.6861C216.673 78.0372 213.08 76.549 209.334 76.549Z" fill="#3B9E65"/>
</svg>
