<svg width="300" height="300" viewBox="0 0 300 300" fill="none" xmlns="http://www.w3.org/2000/svg">
  <path d="M54.9115 120.209C50.5719 122.022 45.8019 127.139 44.2953 133.567C42.387 141.708 50.3268 145.152 50.9785 144.024C51.7449 142.697 49.5558 142.249 49.1051 138.024C48.5227 132.568 51.0654 126.472 54.2655 123.797C54.8595 123.299 54.8317 123.992 54.8317 125.271C54.8317 127.559 54.705 148.099 54.705 152.386C54.705 158.186 54.4649 160.017 54.0333 161.828C53.5967 163.661 52.8939 164.901 53.426 165.378C54.0209 165.912 56.5606 164.642 58.0306 162.595C59.7936 160.14 60.4108 157.191 60.5217 153.99C60.6555 150.13 60.6497 144.005 60.6555 140.511C60.6605 137.308 60.7095 127.926 60.599 122.285C60.572 120.901 56.7263 119.45 54.9115 120.209ZM208.998 147.354C208.858 150.37 208.189 152.727 207.358 154.389C205.751 157.608 202.415 158.607 200.999 153.981C200.227 151.458 200.191 147.246 200.745 143.727C201.31 140.142 202.888 137.434 205.499 137.678C208.076 137.92 209.282 141.231 208.998 147.354ZM165.569 166.064C165.534 171.074 164.743 175.467 163.049 176.743C160.644 178.552 157.413 177.195 158.082 173.539C158.674 170.304 161.474 166.999 165.576 162.962C165.576 162.962 165.584 163.883 165.569 166.064ZM164.912 147.325C164.765 150.072 164.052 152.831 163.273 154.39C161.665 157.608 158.306 158.615 156.913 153.981C155.961 150.815 156.189 146.718 156.66 144.136C157.271 140.787 158.753 137.679 161.414 137.679C164.001 137.679 165.277 140.511 164.912 147.325ZM139.754 147.284C139.596 150.192 139.028 152.623 138.115 154.39C136.464 157.586 133.196 158.6 131.755 153.981C130.717 150.65 131.07 146.109 131.502 143.656C132.143 140.015 133.749 137.434 136.256 137.679C138.831 137.93 140.083 141.232 139.754 147.284ZM255.047 150.681C254.418 150.681 254.131 151.328 253.893 152.417C253.069 156.207 252.202 157.062 251.085 157.062C249.837 157.062 248.715 155.186 248.426 151.431C248.2 148.478 248.237 143.041 248.526 137.634C248.585 136.523 248.278 135.423 245.291 134.341C244.006 133.875 242.137 133.189 241.207 135.429C238.579 141.759 237.55 146.784 237.308 148.825C237.296 148.931 237.166 148.953 237.143 148.706C236.989 147.071 236.644 144.099 236.601 137.857C236.593 136.639 236.334 135.603 234.987 134.754C234.112 134.203 231.458 133.229 230.502 134.388C229.674 135.336 228.714 137.886 227.717 140.91C226.907 143.367 226.343 145.029 226.343 145.029C226.343 145.029 226.354 138.399 226.364 135.884C226.368 134.935 225.716 134.619 225.519 134.562C224.634 134.306 222.889 133.878 222.149 133.878C221.235 133.878 221.012 134.387 221.012 135.129C221.012 135.227 220.868 143.858 220.868 149.894C220.868 150.156 220.868 150.442 220.869 150.746C220.364 153.52 218.725 157.286 216.943 157.286C215.159 157.286 214.317 155.712 214.317 148.516C214.317 144.319 214.443 142.493 214.505 139.457C214.541 137.708 214.611 136.366 214.607 136.061C214.594 135.126 212.974 134.655 212.22 134.481C211.463 134.306 210.805 134.238 210.291 134.267C209.564 134.308 209.049 134.784 209.049 135.438C209.049 135.79 209.054 136.457 209.054 136.457C208.117 134.988 206.61 133.966 205.608 133.67C202.908 132.87 200.091 133.579 197.966 136.546C196.277 138.903 195.258 141.573 194.858 145.408C194.565 148.212 194.66 151.056 195.181 153.461C194.552 156.174 193.384 157.286 192.105 157.286C190.248 157.286 188.903 154.263 189.059 149.034C189.162 145.595 189.852 143.181 190.606 139.689C190.927 138.201 190.666 137.421 190.011 136.675C189.41 135.99 188.129 135.639 186.289 136.07C184.978 136.377 183.103 136.707 181.388 136.961C181.388 136.961 181.492 136.548 181.577 135.822C182.023 132.014 177.874 132.323 176.55 133.539C175.761 134.265 175.223 135.122 175.019 136.662C174.695 139.106 176.693 140.259 176.693 140.259C176.038 143.253 174.431 147.163 172.772 149.991C171.883 151.505 171.204 152.628 170.326 153.821C170.297 149.033 170.328 144.245 170.42 139.457C170.456 137.709 170.526 136.402 170.522 136.097C170.512 135.414 170.112 135.155 169.28 134.828C168.544 134.539 167.674 134.339 166.772 134.269C165.633 134.181 164.946 134.783 164.965 135.496C164.968 135.631 164.968 136.457 164.968 136.457C164.031 134.988 162.525 133.966 161.522 133.67C158.822 132.87 156.005 133.579 153.88 136.546C152.191 138.903 151.086 142.21 150.772 145.379C150.48 148.332 150.534 150.841 150.932 152.955C150.503 155.072 149.268 157.286 147.873 157.286C146.089 157.286 145.073 155.712 145.073 148.516C145.073 144.319 145.2 142.493 145.262 139.457C145.298 137.709 145.367 136.366 145.364 136.061C145.35 135.126 143.731 134.656 142.977 134.481C142.188 134.299 141.508 134.233 140.985 134.271C140.295 134.322 139.81 134.938 139.81 135.398V136.457C138.873 134.988 137.367 133.966 136.364 133.67C133.664 132.87 130.863 133.591 128.722 136.546C127.326 138.472 126.196 140.608 125.614 145.337C125.446 146.703 125.372 147.983 125.382 149.179C124.825 152.575 122.366 156.49 120.355 156.49C119.178 156.49 118.057 154.212 118.057 149.359C118.057 142.894 118.458 133.689 118.527 132.802C118.527 132.802 121.067 132.759 121.559 132.754C122.827 132.739 123.975 132.77 125.663 132.683C126.51 132.64 127.326 129.608 126.452 129.233C126.056 129.063 123.256 128.915 122.146 128.891C121.213 128.87 118.615 128.678 118.615 128.678C118.615 128.678 118.848 122.568 118.903 121.923C118.949 121.385 118.251 121.108 117.851 120.94C116.878 120.53 116.008 120.333 114.977 120.121C113.551 119.828 112.905 120.115 112.778 121.314C112.588 123.136 112.49 128.471 112.49 128.471C111.444 128.471 107.871 128.267 106.825 128.267C105.853 128.267 104.803 132.437 106.147 132.489C107.694 132.548 110.388 132.601 112.174 132.654C112.174 132.654 112.095 142.01 112.095 144.9C112.095 145.206 112.096 145.503 112.098 145.79C111.115 150.902 107.652 153.663 107.652 153.663C108.396 150.281 106.876 147.741 104.14 145.591C103.132 144.799 101.142 143.3 98.9155 141.656C98.9155 141.656 100.205 140.388 101.349 137.837C102.159 136.029 102.194 133.962 100.205 133.505C96.9183 132.751 94.2087 135.159 93.4004 137.73C92.7739 139.722 93.1079 141.199 94.335 142.734C94.4243 142.847 94.5219 142.961 94.6216 143.077C93.8801 144.503 92.8608 146.424 91.9976 147.913C89.6016 152.049 87.7917 155.32 86.4239 155.32C85.3306 155.32 85.3451 151.998 85.3451 148.889C85.3451 146.209 85.5436 142.179 85.7023 138.007C85.7547 136.627 85.0626 135.84 83.9037 135.129C83.1992 134.696 81.6959 133.845 80.8252 133.845C79.5217 133.845 75.7616 134.022 72.2092 144.275C71.7614 145.567 70.8816 147.922 70.8816 147.922L70.9576 135.593C70.9576 135.303 70.8031 135.024 70.4496 134.833C69.851 134.509 68.2522 133.845 66.8303 133.845C66.1532 133.846 65.8146 134.159 65.8146 134.786L65.6909 154.076C65.6909 155.541 65.7291 157.251 65.8745 157.999C66.019 158.747 66.2537 159.356 66.5437 159.719C66.834 160.08 67.1692 160.357 67.7221 160.47C68.2368 160.576 71.0548 160.937 71.2014 159.863C71.3767 158.575 71.3838 157.182 72.8634 151.988C75.1672 143.901 78.1705 139.956 79.5828 138.554C79.8299 138.31 80.1116 138.295 80.0979 138.695C80.0381 140.468 79.8258 144.899 79.6833 148.662C79.3007 158.734 81.1372 160.601 83.762 160.601C85.77 160.601 88.6005 158.611 91.6345 153.572C93.3251 150.765 95.0078 147.952 96.6828 145.135C97.602 145.984 98.6343 146.898 99.6653 147.874C102.062 150.144 102.849 152.3 102.327 154.346C101.928 155.909 100.424 157.521 97.7474 155.955C96.9673 155.498 96.6342 155.144 95.8499 154.629C95.4287 154.353 94.7853 154.27 94.3994 154.56C93.3975 155.313 92.8242 156.272 92.4969 157.459C92.1787 158.614 93.338 159.225 94.5402 159.759C95.5749 160.218 97.7993 160.635 99.2175 160.682C104.744 160.867 109.172 158.02 112.254 150.677C112.806 157.019 115.154 160.607 119.233 160.607C121.961 160.607 124.695 157.09 125.891 153.63C126.234 155.04 126.743 156.267 127.399 157.304C130.542 162.273 136.64 161.204 139.703 156.984C140.65 155.681 140.794 155.212 140.794 155.212C141.241 159.196 144.457 160.588 146.298 160.588C148.361 160.588 150.49 159.615 151.982 156.264C152.157 156.628 152.348 156.975 152.557 157.304C155.7 162.273 161.798 161.204 164.861 156.984C165.005 156.786 165.132 156.607 165.241 156.446L165.33 159.063L162.51 161.643C157.783 165.965 154.192 169.243 153.928 173.061C153.592 177.93 157.547 179.739 160.544 179.976C163.72 180.228 166.446 178.475 168.118 176.023C169.59 173.865 170.554 169.219 170.483 164.631C170.455 162.794 170.408 160.457 170.372 157.953C172.031 156.031 173.901 153.601 175.622 150.757C177.498 147.657 179.509 143.495 180.538 140.256C180.538 140.256 182.285 140.271 184.149 140.149C184.745 140.11 184.917 140.232 184.806 140.668C184.673 141.195 182.451 149.745 184.479 155.441C185.867 159.341 188.996 160.595 190.852 160.595C193.024 160.595 195.101 158.959 196.214 156.53C196.349 156.8 196.489 157.062 196.642 157.305C199.785 162.273 205.862 161.197 208.947 156.984C209.643 156.034 210.038 155.212 210.038 155.212C210.7 159.336 213.914 160.609 215.755 160.609C217.673 160.609 219.493 159.825 220.969 156.339C221.031 157.874 221.128 159.129 221.281 159.524C221.375 159.767 221.92 160.07 222.316 160.217C224.071 160.866 225.859 160.559 226.522 160.426C226.98 160.333 227.338 159.966 227.387 159.018C227.516 156.53 227.437 152.349 228.193 149.241C229.462 144.026 230.646 142.004 231.208 141.002C231.522 140.441 231.876 140.348 231.889 140.942C231.916 142.144 231.976 145.672 232.467 150.413C232.829 153.899 233.311 155.96 233.682 156.613C234.74 158.477 236.046 158.566 237.111 158.566C237.788 158.566 239.203 158.379 239.077 157.192C239.015 156.614 239.123 153.038 240.374 147.901C241.192 144.546 242.554 141.515 243.045 140.406C243.227 139.997 243.311 140.319 243.308 140.382C243.205 142.693 242.972 150.25 243.916 154.383C245.195 159.983 248.895 160.609 250.184 160.609C252.936 160.609 255.187 158.521 255.945 153.025C256.128 151.702 255.858 150.681 255.047 150.681Z" fill="#343433"/>
</svg>
