<svg width="300" height="300" viewBox="0 0 300 300" fill="none" xmlns="http://www.w3.org/2000/svg">
  <path d="M51.3287 132.391H59.0474V160.484H73.3285V167.609H51.3287V132.391ZM76.7347 143.75H84.1408V167.593H76.7347V143.75ZM80.4378 131.891C81.2876 131.891 82.1183 132.143 82.8249 132.615C83.5316 133.087 84.0823 133.758 84.4075 134.543C84.7327 135.328 84.8178 136.192 84.652 137.026C84.4862 137.859 84.077 138.625 83.4761 139.226C82.8751 139.827 82.1095 140.236 81.276 140.402C80.4425 140.568 79.5786 140.482 78.7934 140.157C78.0083 139.832 77.3372 139.281 76.8651 138.575C76.3929 137.868 76.1409 137.037 76.1409 136.187C76.1409 135.048 76.5936 133.955 77.3994 133.149C78.2053 132.343 79.2982 131.891 80.4378 131.891ZM115.14 132.391H122.547V153.437L130.953 143.719H140.031L130.312 154.765L139.828 167.609H130.515L122.64 155.812H122.547V167.609H115.14V132.391ZM88.2502 143.75H95.3126V147.015H95.4063C96.1187 145.799 97.147 144.798 98.3821 144.119C99.6172 143.439 101.013 143.107 102.422 143.156C109.937 143.156 111.312 148.094 111.312 154.515V167.609H103.969V156C103.969 153.234 103.969 149.75 100.109 149.75C96.2501 149.75 95.6563 152.765 95.6563 155.875V167.671H88.2502V143.75Z" fill="#404040"/>
  <path d="M155.64 152.891C155.655 152.29 155.548 151.692 155.325 151.134C155.102 150.575 154.767 150.068 154.342 149.643C153.917 149.218 153.41 148.883 152.851 148.66C152.293 148.437 151.695 148.33 151.093 148.345C149.799 148.263 148.524 148.694 147.544 149.545C146.564 150.396 145.959 151.598 145.859 152.891H155.64ZM161.89 163.469C160.654 164.951 159.105 166.139 157.354 166.95C155.603 167.761 153.695 168.173 151.765 168.157C144.359 168.157 138.422 163.219 138.422 155.548C138.422 147.876 144.359 142.954 151.765 142.954C158.687 142.954 163.031 147.891 163.031 155.548V157.876H145.844C146.048 159.2 146.726 160.405 147.752 161.268C148.778 162.13 150.082 162.59 151.422 162.563C152.477 162.562 153.515 162.293 154.438 161.782C155.362 161.271 156.141 160.535 156.703 159.641L161.89 163.469ZM178.484 149.501C177.274 149.463 176.081 149.788 175.057 150.433C174.034 151.077 173.225 152.013 172.736 153.12C172.248 154.227 172.1 155.454 172.313 156.645C172.526 157.837 173.09 158.937 173.932 159.806C174.774 160.675 175.856 161.273 177.04 161.523C178.224 161.773 179.455 161.664 180.577 161.21C181.698 160.756 182.659 159.977 183.336 158.974C184.012 157.971 184.374 156.789 184.374 155.579C184.441 154.776 184.334 153.968 184.061 153.21C183.788 152.452 183.355 151.762 182.792 151.185C182.229 150.609 181.549 150.16 180.798 149.87C180.046 149.579 179.241 149.453 178.437 149.501M191.249 167.594H184.374V164.469C183.515 165.615 182.406 166.548 181.13 167.198C179.854 167.848 178.447 168.198 177.015 168.219C169.89 168.219 165.203 163.079 165.203 155.813C165.203 149.141 169.359 143.016 176.14 143.016C177.566 142.891 179.001 143.11 180.325 143.653C181.649 144.197 182.823 145.05 183.749 146.141H183.843V132.392H191.249V167.594Z" fill="#404040"/>
  <path fill-rule="evenodd" clip-rule="evenodd" d="M202.359 125H244.968C245.448 124.994 245.925 125.083 246.371 125.261C246.817 125.439 247.224 125.703 247.567 126.038C247.911 126.373 248.186 126.773 248.375 127.214C248.565 127.655 248.665 128.129 248.671 128.61V171.39C248.665 171.871 248.565 172.345 248.375 172.786C248.186 173.227 247.911 173.627 247.567 173.962C247.224 174.297 246.817 174.561 246.371 174.739C245.925 174.917 245.448 175.006 244.968 175H202.359C201.392 175.008 200.461 174.633 199.77 173.956C199.079 173.28 198.684 172.357 198.672 171.39V128.61C198.684 127.643 199.079 126.72 199.77 126.044C200.461 125.367 201.392 124.992 202.359 125ZM213.499 143.75H206.077V167.609H213.499V143.75ZM212.167 132.615C211.461 132.143 210.63 131.891 209.78 131.891C208.641 131.891 207.548 132.343 206.742 133.149C205.936 133.955 205.483 135.048 205.483 136.187C205.483 137.037 205.735 137.868 206.207 138.575C206.68 139.281 207.351 139.832 208.136 140.157C208.921 140.482 209.785 140.568 210.618 140.402C211.452 140.236 212.218 139.827 212.818 139.226C213.419 138.625 213.829 137.859 213.994 137.026C214.16 136.192 214.075 135.328 213.75 134.543C213.425 133.758 212.874 133.087 212.167 132.615ZM225.249 143.75H218.139L218.124 167.671H225.53V155.875C225.53 152.765 226.124 149.75 229.983 149.75C233.842 149.75 233.842 153.234 233.842 156V167.609H241.249V154.515C241.249 148.094 239.874 143.156 232.358 143.156C230.949 143.107 229.553 143.439 228.318 144.119C227.083 144.798 226.055 145.799 225.342 147.015H225.249V143.75Z" fill="#7D7D7D"/>
</svg>
