<svg width="300" height="300" viewBox="0 0 300 300" fill="none" xmlns="http://www.w3.org/2000/svg">
  <path fill-rule="evenodd" clip-rule="evenodd" d="M63.045 48.0003H236.891C238.85 47.975 240.795 48.3358 242.615 49.0623C244.434 49.7887 246.093 50.8664 247.496 52.2339C248.899 53.6014 250.019 55.2319 250.791 57.0322C251.564 58.8325 251.975 60.7675 252 62.7265V237.274C251.975 239.233 251.564 241.168 250.791 242.968C250.019 244.769 248.899 246.399 247.496 247.767C246.093 249.134 244.434 250.212 242.615 250.938C240.795 251.665 238.85 252.025 236.891 252H63.045C59.0995 252.034 55.3012 250.504 52.4815 247.744C49.6619 244.984 48.0504 241.219 48 237.274V62.7265C48.0504 58.7812 49.6619 55.0166 52.4815 52.2566C55.3012 49.4967 59.0995 47.9662 63.045 48.0003ZM108.495 124.499H78.2133V221.845H108.495V124.499ZM103.062 79.0674C100.179 77.1411 96.7894 76.1129 93.3221 76.1129C88.6725 76.1129 84.2133 77.9599 80.9256 81.2477C77.6378 84.5354 75.7908 88.9945 75.7908 93.6441C75.7908 97.1115 76.819 100.501 78.7454 103.384C80.6717 106.267 83.4097 108.514 86.6131 109.841C89.8166 111.168 93.3415 111.515 96.7423 110.839C100.143 110.162 103.267 108.492 105.719 106.041C108.17 103.589 109.84 100.465 110.516 97.0643C111.193 93.6636 110.846 90.1386 109.519 86.9352C108.192 83.7318 105.945 80.9938 103.062 79.0674ZM156.435 124.499H127.428L127.365 222.1H157.582V173.969C157.582 161.283 160.005 148.979 175.751 148.979C191.497 148.979 191.497 163.195 191.497 174.479V221.845H221.715V168.423C221.715 142.222 216.104 122.077 185.441 122.077C179.693 121.875 173.997 123.232 168.958 126.004C163.919 128.776 159.724 132.86 156.817 137.823H156.435V124.499Z" fill="#3B9E65"/>
</svg>
