<svg width="300" height="300" viewBox="0 0 300 300" fill="none" xmlns="http://www.w3.org/2000/svg">
  <path d="M94.719 69C69.8256 69 49.655 89.1046 49.655 113.902C49.655 120.247 50.9721 126.291 53.3617 131.754C47.4528 135.208 42.5553 140.147 39.1579 146.08C35.7605 152.012 33.9821 158.729 34.0001 165.562C34.0001 187.112 51.3296 204.588 72.7232 204.588C75.4515 204.588 78.1234 204.307 80.6823 203.762C86.5529 219.662 101.85 231 119.819 231C137.074 231 151.863 220.544 158.223 205.639C163.2 208.074 168.673 209.333 174.216 209.319C187.914 209.319 199.862 201.791 206.128 190.641C209.327 191.279 212.619 191.617 215.987 191.617C243.609 191.617 266 169.072 266 141.271C266 113.489 243.609 90.9442 215.987 90.9442C208.781 90.9442 201.951 92.4835 195.76 95.2429C188.648 82.5908 175.289 74.0684 159.972 74.0684C148.438 74.0684 138.033 78.8927 130.544 86.6642C122.322 75.9268 109.32 68.9813 94.719 69ZM169.098 125.559C169.794 125.559 170.415 125.597 170.923 125.691C171.431 125.784 171.826 125.878 172.259 126.01C172.353 126.047 172.617 126.179 172.504 126.498L171.469 129.314C171.394 129.52 171.318 129.651 170.886 129.52C170.773 129.483 170.603 129.445 170.19 129.351C169.825 129.271 169.453 129.234 169.079 129.238C168.534 129.238 168.063 129.314 167.631 129.445C167.217 129.576 166.84 129.802 166.502 130.14C166.163 130.477 165.768 130.965 165.561 131.566C165.072 132.974 164.865 134.495 164.846 134.588H169.155C169.512 134.588 169.625 134.757 169.587 135.02L169.079 137.817C169.004 138.23 168.628 138.211 168.628 138.211H164.206L161.177 155.312C160.857 157.077 160.462 158.597 159.991 159.818C159.521 161.057 159.032 161.958 158.241 162.821C157.508 163.61 156.699 164.21 155.758 164.548C154.836 164.886 153.707 165.055 152.465 165.055C151.863 165.055 151.242 165.036 150.489 164.867C150.077 164.766 149.669 164.647 149.266 164.511C149.097 164.435 148.965 164.229 149.059 163.966C149.153 163.703 149.944 161.526 150.057 161.244C150.207 160.906 150.546 161.038 150.546 161.038C150.79 161.132 150.96 161.207 151.28 161.263C151.599 161.319 152.032 161.376 152.352 161.376C152.935 161.376 153.462 161.301 153.933 161.15C154.497 160.963 154.817 160.644 155.156 160.212C155.513 159.743 155.795 159.123 156.096 158.297C156.397 157.452 156.68 156.345 156.905 154.993L159.916 138.211H156.943C156.586 138.211 156.473 138.042 156.51 137.78L157.018 134.983C157.094 134.57 157.47 134.588 157.47 134.588H160.518L160.687 133.687C161.158 131.003 162.061 128.957 163.397 127.605C164.752 126.254 166.671 125.559 169.098 125.559ZM108.229 125.972H111.804C112.03 125.972 112.199 126.16 112.199 126.385V155.012C112.199 155.237 112.03 155.425 111.804 155.425H108.229C108.003 155.425 107.852 155.237 107.852 155.012V126.385C107.852 126.16 108.003 125.972 108.229 125.972ZM216.326 134.138C217.436 134.138 218.433 134.213 219.299 134.344C220.221 134.476 221.444 134.795 221.952 135.001C222.046 135.039 222.31 135.17 222.197 135.471C221.82 136.522 221.557 137.216 221.218 138.174C221.068 138.587 220.748 138.455 220.748 138.455C219.449 138.042 218.189 137.855 216.552 137.855C214.595 137.855 213.109 138.512 212.149 139.788C211.171 141.065 210.625 142.754 210.625 145.007C210.625 147.485 211.246 149.305 212.337 150.432C213.447 151.558 214.971 152.121 216.891 152.121C217.681 152.121 218.415 152.065 219.073 151.971C219.732 151.877 220.334 151.671 220.917 151.445C220.917 151.445 221.293 151.295 221.425 151.689L222.422 154.355C222.535 154.693 222.253 154.824 222.253 154.824C220.748 155.406 218.659 155.819 216.627 155.819C213.184 155.819 210.531 154.824 208.781 152.872C207.012 150.939 206.128 148.273 206.128 144.988C206.128 143.467 206.335 142.041 206.768 140.727C207.177 139.464 207.836 138.296 208.706 137.292C209.552 136.315 210.644 135.546 211.904 134.983C213.165 134.419 214.651 134.138 216.326 134.138ZM75.5268 134.157H75.9972C78.5562 134.157 81.021 134.889 82.8085 135.978C82.9591 136.071 83.1284 136.259 83.0343 136.503C82.9591 136.728 82.1688 138.85 82.0747 139.094C81.9054 139.544 81.4538 139.244 81.4538 139.244C79.8921 138.38 77.4648 137.705 75.4139 137.705C73.5699 137.705 72.3845 138.681 72.3845 140.013V140.089C72.3845 141.628 74.4355 142.285 76.7875 143.054L77.2014 143.186C80.3437 144.162 83.6741 145.532 83.6741 149.287V149.362C83.6741 153.416 80.72 155.951 75.9596 155.951C73.6076 155.951 71.3873 155.594 69.0165 154.336C68.5837 154.073 68.1322 153.848 67.6994 153.529C67.6618 153.454 67.4548 153.379 67.6053 153.003L68.5085 150.432C68.659 150 68.9977 150.131 69.1294 150.225C69.3928 150.375 69.581 150.526 69.9197 150.713C72.6856 152.459 75.2446 152.478 76.0536 152.478C78.1234 152.478 79.4029 151.37 79.4029 149.906V149.831C79.4029 148.235 77.4272 147.616 75.1317 146.921L74.6236 146.771C71.4814 145.87 68.1322 144.575 68.1322 140.614V140.539C68.1322 136.785 71.1803 134.157 75.5268 134.157ZM95.1518 134.157C97.8424 134.157 99.9122 134.776 101.323 136.015C102.753 137.235 103.468 139.244 103.468 141.928V154.205C103.468 154.205 103.506 154.562 103.167 154.637C103.167 154.637 102.678 154.768 102.227 154.881C101.775 154.993 100.157 155.312 98.8397 155.538C97.5037 155.763 96.1302 155.876 94.7566 155.876C93.5616 155.89 92.3687 155.77 91.2004 155.519C90.1279 155.275 89.2059 154.881 88.4533 154.336C87.7007 153.792 87.1174 153.079 86.7034 152.234C86.2895 151.389 86.0825 150.357 86.0825 149.174C86.0825 148.01 86.3271 146.959 86.7975 146.077C87.2867 145.194 87.9453 144.444 88.7544 143.862C89.5634 143.28 90.5042 142.848 91.5579 142.566C92.6116 142.285 93.7218 142.135 94.8695 142.135C95.7162 142.135 96.4312 142.153 96.9769 142.191C96.9769 142.191 98.0306 142.285 99.216 142.435V141.872C99.216 140.089 98.8397 139.244 98.1059 138.681C97.3532 138.099 96.2243 137.817 94.7754 137.817C94.7754 137.817 91.5203 137.78 88.9237 139.188C88.792 139.263 88.6979 139.3 88.6979 139.3C88.6979 139.3 88.378 139.413 88.2652 139.075L87.3055 136.522C87.155 136.165 87.4184 135.996 87.4184 135.996C88.6227 135.058 91.5579 134.495 91.5579 134.495C92.5175 134.288 94.1357 134.157 95.1518 134.157ZM145.202 134.157H145.672C148.231 134.157 150.696 134.889 152.484 135.978C152.634 136.071 152.804 136.259 152.71 136.503C152.634 136.728 151.844 138.85 151.75 139.094C151.581 139.544 151.129 139.244 151.129 139.244C149.567 138.38 147.14 137.705 145.089 137.705C143.245 137.705 142.06 138.681 142.06 140.013V140.089C142.06 141.628 144.111 142.285 146.463 143.054L146.877 143.186C150.019 144.162 153.349 145.532 153.349 149.287V149.362C153.349 153.416 150.395 155.951 145.635 155.951C143.283 155.951 141.063 155.594 138.692 154.336C138.259 154.073 137.807 153.848 137.375 153.529C137.337 153.454 137.13 153.379 137.281 153.003L138.184 150.432C138.315 150.019 138.711 150.169 138.805 150.225C139.068 150.375 139.256 150.526 139.595 150.713C142.361 152.459 144.92 152.478 145.729 152.478C147.799 152.478 149.078 151.37 149.078 149.906V149.831C149.078 148.235 147.102 147.616 144.807 146.921L144.299 146.771C141.157 145.87 137.807 144.575 137.807 140.614V140.539C137.807 136.785 140.856 134.157 145.202 134.157ZM125.935 134.194C127.383 134.194 128.7 134.495 129.792 134.964C130.639 135.321 131.485 135.959 132.351 136.897C132.896 137.479 133.724 138.756 134.063 140.032C134.929 143.054 134.477 145.664 134.477 145.851C134.439 146.208 134.082 146.208 134.082 146.208L120.628 146.189C120.704 148.235 121.193 149.681 122.19 150.657C123.15 151.614 124.693 152.234 126.781 152.234C129.961 152.234 131.335 151.596 132.294 151.239C132.294 151.239 132.671 151.108 132.802 151.464L133.687 153.923C133.856 154.336 133.724 154.486 133.574 154.562C132.727 155.012 130.676 155.876 126.8 155.894C124.918 155.894 123.282 155.632 121.927 155.106C120.553 154.58 119.424 153.829 118.54 152.872C117.643 151.891 116.975 150.724 116.583 149.456C116.174 148.066 115.971 146.624 115.981 145.176C115.981 143.655 116.169 142.21 116.564 140.896C116.959 139.582 117.58 138.399 118.389 137.423C119.217 136.428 120.252 135.64 121.494 135.058C122.736 134.476 124.26 134.194 125.935 134.194ZM179.692 134.194C181.291 134.194 182.74 134.476 183.944 135.039C185.167 135.602 186.183 136.372 186.992 137.348C187.801 138.305 188.403 139.469 188.798 140.783C189.194 142.078 189.382 143.524 189.382 145.044C189.382 146.565 189.194 147.991 188.798 149.305C188.403 150.619 187.801 151.783 186.992 152.741C186.183 153.698 185.148 154.486 183.944 155.031C182.74 155.575 181.31 155.857 179.692 155.857C178.092 155.857 176.662 155.575 175.439 155.031C174.262 154.509 173.219 153.726 172.391 152.741C171.582 151.783 170.98 150.619 170.585 149.305C170.184 147.921 169.987 146.485 170.001 145.044C170.001 143.524 170.19 142.097 170.585 140.783C170.98 139.469 171.582 138.324 172.391 137.348C173.2 136.391 174.216 135.602 175.439 135.039C176.643 134.476 178.073 134.194 179.692 134.194ZM233.599 134.194C235.048 134.194 236.365 134.495 237.456 134.964C238.303 135.321 239.15 135.959 240.015 136.897C240.58 137.479 241.408 138.756 241.746 140.032C242.612 143.054 242.16 145.664 242.141 145.851C242.104 146.208 241.746 146.208 241.746 146.208L228.293 146.189C228.368 148.235 228.857 149.681 229.855 150.657C230.814 151.614 232.357 152.234 234.446 152.234C237.626 152.234 238.999 151.596 239.959 151.239C239.959 151.239 240.335 151.108 240.467 151.464L241.351 153.923C241.521 154.336 241.389 154.486 241.238 154.562C240.392 155.012 238.341 155.876 234.465 155.894C232.583 155.894 230.946 155.632 229.591 155.106C228.218 154.58 227.089 153.829 226.204 152.872C225.32 151.915 224.661 150.77 224.248 149.456C223.838 148.066 223.636 146.624 223.645 145.176C223.645 143.655 223.834 142.21 224.229 140.896C224.624 139.582 225.245 138.399 226.054 137.423C226.882 136.428 227.917 135.64 229.158 135.058C230.4 134.476 231.924 134.194 233.599 134.194ZM201.828 134.395C202.166 134.376 202.545 134.378 202.967 134.399C203.851 134.455 204.999 134.701 205.225 134.795C205.319 134.832 205.526 134.983 205.432 135.283C205.3 135.64 204.641 137.479 204.434 138.08C204.34 138.305 204.209 138.474 203.945 138.437C203.945 138.437 203.155 138.249 202.459 138.249C201.97 138.249 201.273 138.324 200.652 138.512C200.05 138.699 199.486 139.037 198.997 139.507C198.507 139.976 198.093 140.652 197.811 141.478C197.51 142.322 197.36 143.674 197.36 145.007V155.012C197.36 155.237 197.172 155.425 196.946 155.425H193.408C193.183 155.425 192.994 155.237 192.994 155.012V135.001C192.994 134.776 193.164 134.588 193.39 134.588H196.833C197.059 134.588 197.228 134.776 197.228 135.001V136.635C197.755 135.94 198.677 135.339 199.505 134.964C200.126 134.682 200.81 134.453 201.828 134.395ZM125.615 137.706C123.846 137.706 122.602 138.399 121.774 139.657C121.229 140.483 120.871 141.553 120.683 142.829H130.26C130.166 141.59 129.922 140.483 129.376 139.657C128.548 138.399 127.381 137.705 125.613 137.705L125.615 137.706ZM233.317 137.706C231.548 137.706 230.304 138.399 229.476 139.657C228.931 140.483 228.573 141.553 228.385 142.829H237.962C237.868 141.59 237.643 140.483 237.078 139.657C236.25 138.399 235.084 137.705 233.315 137.705L233.317 137.706ZM179.692 137.815C177.923 137.815 176.662 138.416 175.834 139.674C174.988 140.95 174.574 142.752 174.574 145.042C174.574 147.333 175.006 149.155 175.834 150.432C176.662 151.689 177.923 152.309 179.692 152.309C181.441 152.309 182.719 151.689 183.547 150.432C184.394 149.155 184.826 147.334 184.826 145.044C184.826 142.735 184.394 140.933 183.566 139.676C182.719 138.418 181.458 137.817 179.69 137.817L179.692 137.815ZM95.5469 145.512C92.7998 145.474 91.6313 146.492 91.6501 146.492C90.841 147.055 90.4459 147.896 90.4459 149.078C90.4459 149.829 90.5776 150.411 90.841 150.824C91.0104 151.087 91.0857 151.2 91.6125 151.613C91.6125 151.613 92.8167 152.574 95.5638 152.423C97.4831 152.292 99.1953 151.935 99.1953 151.935V145.835C99.1953 145.835 97.4661 145.53 95.5469 145.512Z" fill="#3B9E65"/>
</svg>
