<svg width="300" height="300" viewBox="0 0 300 300" fill="none" xmlns="http://www.w3.org/2000/svg">
  <path d="M110.445 92C92.6338 92 78.2014 106.396 78.2014 124.152C78.2014 128.695 79.1438 133.023 80.8536 136.935C76.6257 139.408 73.1215 142.945 70.6906 147.193C68.2597 151.441 66.9872 156.251 67.0001 161.143C67.0001 176.574 79.3996 189.088 94.7071 189.088C96.6593 189.088 98.571 188.886 100.402 188.496C104.603 199.881 115.548 208 128.405 208C140.751 208 151.333 200.513 155.883 189.841C159.445 191.584 163.361 192.485 167.327 192.475C177.128 192.475 185.677 187.085 190.16 179.101C192.449 179.558 194.805 179.8 197.215 179.8C216.979 179.8 233 163.657 233 143.75C233 123.856 216.979 107.713 197.215 107.713C192.059 107.713 187.172 108.815 182.742 110.791C177.653 101.732 168.094 95.6292 157.135 95.6292C148.883 95.6292 141.438 99.0837 136.079 104.648C130.196 96.9599 120.893 91.9866 110.445 92ZM163.665 132.499C164.163 132.499 164.608 132.526 164.971 132.593C165.335 132.661 165.617 132.728 165.927 132.822C165.994 132.849 166.183 132.943 166.102 133.171L165.361 135.188C165.308 135.335 165.254 135.429 164.944 135.335C164.863 135.308 164.742 135.282 164.446 135.214C164.185 135.157 163.919 135.13 163.652 135.134C163.261 135.134 162.925 135.188 162.615 135.282C162.319 135.376 162.05 135.537 161.807 135.779C161.565 136.021 161.282 136.37 161.134 136.8C160.784 137.809 160.636 138.897 160.622 138.965H163.705C163.961 138.965 164.042 139.086 164.015 139.274L163.652 141.276C163.598 141.572 163.329 141.559 163.329 141.559H160.165L157.997 153.804C157.768 155.067 157.486 156.156 157.149 157.03C156.812 157.917 156.462 158.562 155.897 159.181C155.372 159.745 154.793 160.175 154.12 160.417C153.46 160.659 152.652 160.78 151.764 160.78C151.333 160.78 150.889 160.767 150.35 160.646C150.055 160.573 149.763 160.488 149.475 160.39C149.354 160.337 149.26 160.189 149.327 160C149.394 159.812 149.96 158.253 150.04 158.051C150.148 157.81 150.39 157.904 150.39 157.904C150.565 157.971 150.687 158.025 150.916 158.065C151.144 158.105 151.454 158.146 151.683 158.146C152.1 158.146 152.477 158.092 152.814 157.984C153.218 157.85 153.447 157.621 153.689 157.312C153.945 156.976 154.147 156.533 154.362 155.941C154.577 155.336 154.779 154.543 154.941 153.575L157.095 141.559H154.968C154.712 141.559 154.631 141.438 154.658 141.25L155.022 139.247C155.076 138.951 155.345 138.965 155.345 138.965H157.526L157.647 138.319C157.984 136.397 158.63 134.932 159.586 133.964C160.555 132.997 161.928 132.499 163.665 132.499ZM120.112 132.795H122.67C122.832 132.795 122.953 132.929 122.953 133.091V153.589C122.953 153.75 122.832 153.885 122.67 153.885H120.112C119.95 153.885 119.843 153.75 119.843 153.589V133.091C119.843 132.929 119.95 132.795 120.112 132.795ZM197.457 138.642C198.252 138.642 198.965 138.696 199.585 138.79C200.244 138.884 201.119 139.112 201.483 139.26C201.55 139.287 201.739 139.381 201.658 139.596C201.389 140.349 201.2 140.846 200.958 141.532C200.85 141.828 200.621 141.734 200.621 141.734C199.692 141.438 198.79 141.303 197.619 141.303C196.219 141.303 195.155 141.774 194.469 142.688C193.769 143.602 193.378 144.812 193.378 146.425C193.378 148.199 193.822 149.503 194.603 150.309C195.398 151.116 196.488 151.519 197.861 151.519C198.427 151.519 198.952 151.479 199.423 151.411C199.894 151.344 200.325 151.196 200.742 151.035C200.742 151.035 201.012 150.927 201.106 151.21L201.819 153.118C201.9 153.36 201.698 153.454 201.698 153.454C200.621 153.871 199.127 154.167 197.673 154.167C195.209 154.167 193.311 153.454 192.059 152.057C190.793 150.672 190.16 148.763 190.16 146.411C190.16 145.322 190.309 144.301 190.618 143.36C190.911 142.456 191.383 141.62 192.005 140.9C192.611 140.201 193.392 139.65 194.294 139.247C195.196 138.844 196.259 138.642 197.457 138.642ZM96.7131 138.655H97.0497C98.8807 138.655 100.644 139.18 101.923 139.959C102.031 140.026 102.152 140.161 102.085 140.336C102.031 140.497 101.466 142.016 101.398 142.191C101.277 142.513 100.954 142.298 100.954 142.298C99.8366 141.68 98.0998 141.196 96.6324 141.196C95.313 141.196 94.4648 141.895 94.4648 142.849V142.903C94.4648 144.005 95.9323 144.476 97.6152 145.027L97.9114 145.121C100.16 145.82 102.543 146.801 102.543 149.489V149.543C102.543 152.446 100.429 154.261 97.0228 154.261C95.3399 154.261 93.7513 154.006 92.0549 153.105C91.7453 152.917 91.4221 152.756 91.1125 152.527C91.0856 152.473 90.9375 152.419 91.0452 152.151L91.6914 150.309C91.7991 150 92.0414 150.094 92.1357 150.161C92.3242 150.269 92.4588 150.376 92.7011 150.511C94.6802 151.761 96.5112 151.774 97.0901 151.774C98.571 151.774 99.4865 150.981 99.4865 149.933V149.879C99.4865 148.737 98.0729 148.293 96.4304 147.796L96.0669 147.688C93.8186 147.043 91.4221 146.115 91.4221 143.279V143.226C91.4221 140.537 93.6032 138.655 96.7131 138.655ZM110.755 138.655C112.68 138.655 114.161 139.099 115.171 139.986C116.194 140.86 116.706 142.298 116.706 144.22V153.011C116.706 153.011 116.733 153.266 116.49 153.32C116.49 153.32 116.14 153.414 115.817 153.495C115.494 153.575 114.336 153.804 113.394 153.965C112.438 154.127 111.455 154.207 110.472 154.207C109.617 154.217 108.764 154.132 107.928 153.952C107.16 153.777 106.501 153.495 105.962 153.105C105.424 152.715 105.006 152.204 104.71 151.6C104.414 150.995 104.266 150.255 104.266 149.409C104.266 148.575 104.441 147.822 104.778 147.191C105.128 146.559 105.599 146.021 106.178 145.605C106.757 145.188 107.43 144.879 108.184 144.677C108.938 144.476 109.732 144.368 110.553 144.368C111.159 144.368 111.671 144.381 112.061 144.408C112.061 144.408 112.815 144.476 113.663 144.583V144.18C113.663 142.903 113.394 142.298 112.869 141.895C112.33 141.478 111.523 141.276 110.486 141.276C110.486 141.276 108.157 141.25 106.299 142.258C106.205 142.311 106.137 142.338 106.137 142.338C106.137 142.338 105.908 142.419 105.828 142.177L105.141 140.349C105.033 140.094 105.222 139.973 105.222 139.973C106.083 139.301 108.184 138.897 108.184 138.897C108.87 138.749 110.028 138.655 110.755 138.655ZM146.567 138.655H146.904C148.735 138.655 150.498 139.18 151.777 139.959C151.885 140.026 152.006 140.161 151.939 140.336C151.885 140.497 151.319 142.016 151.252 142.191C151.131 142.513 150.808 142.298 150.808 142.298C149.69 141.68 147.954 141.196 146.486 141.196C145.167 141.196 144.319 141.895 144.319 142.849V142.903C144.319 144.005 145.786 144.476 147.469 145.027L147.765 145.121C150.014 145.82 152.396 146.801 152.396 149.489V149.543C152.396 152.446 150.283 154.261 146.877 154.261C145.194 154.261 143.605 154.006 141.909 153.105C141.599 152.917 141.276 152.756 140.966 152.527C140.939 152.473 140.791 152.419 140.899 152.151L141.545 150.309C141.639 150.013 141.922 150.121 141.99 150.161C142.178 150.269 142.313 150.376 142.555 150.511C144.534 151.761 146.365 151.774 146.944 151.774C148.425 151.774 149.34 150.981 149.34 149.933V149.879C149.34 148.737 147.927 148.293 146.284 147.796L145.921 147.688C143.672 147.043 141.276 146.115 141.276 143.279V143.226C141.276 140.537 143.457 138.655 146.567 138.655ZM132.781 138.682C133.817 138.682 134.76 138.897 135.541 139.233C136.147 139.489 136.752 139.946 137.372 140.618C137.762 141.035 138.354 141.949 138.597 142.863C139.216 145.027 138.893 146.895 138.893 147.029C138.866 147.285 138.61 147.285 138.61 147.285L128.984 147.271C129.038 148.737 129.388 149.772 130.102 150.47C130.788 151.156 131.892 151.6 133.387 151.6C135.662 151.6 136.645 151.143 137.331 150.887C137.331 150.887 137.601 150.793 137.695 151.048L138.328 152.809C138.449 153.105 138.354 153.213 138.247 153.266C137.641 153.589 136.173 154.207 133.4 154.221C132.054 154.221 130.882 154.032 129.913 153.656C128.93 153.28 128.123 152.742 127.49 152.057C126.848 151.354 126.37 150.519 126.09 149.61C125.797 148.615 125.652 147.583 125.659 146.546C125.659 145.457 125.793 144.422 126.076 143.481C126.359 142.54 126.803 141.693 127.382 140.994C127.974 140.282 128.715 139.717 129.603 139.301C130.492 138.884 131.583 138.682 132.781 138.682ZM171.245 138.682C172.389 138.682 173.426 138.884 174.287 139.287C175.163 139.69 175.89 140.241 176.468 140.94C177.047 141.626 177.478 142.459 177.761 143.4C178.044 144.328 178.178 145.363 178.178 146.451C178.178 147.54 178.044 148.562 177.761 149.503C177.478 150.444 177.047 151.277 176.468 151.962C175.89 152.648 175.149 153.213 174.287 153.602C173.426 153.992 172.403 154.194 171.245 154.194C170.1 154.194 169.077 153.992 168.202 153.602C167.36 153.229 166.614 152.668 166.021 151.962C165.442 151.277 165.011 150.444 164.729 149.503C164.442 148.511 164.301 147.483 164.311 146.451C164.311 145.363 164.446 144.341 164.729 143.4C165.011 142.459 165.442 141.639 166.021 140.94C166.6 140.255 167.327 139.69 168.202 139.287C169.064 138.884 170.087 138.682 171.245 138.682ZM209.817 138.682C210.853 138.682 211.796 138.897 212.576 139.233C213.182 139.489 213.788 139.946 214.407 140.618C214.811 141.035 215.404 141.949 215.646 142.863C216.265 145.027 215.942 146.895 215.929 147.029C215.902 147.285 215.646 147.285 215.646 147.285L206.02 147.271C206.074 148.737 206.424 149.772 207.137 150.47C207.824 151.156 208.928 151.6 210.422 151.6C212.698 151.6 213.68 151.143 214.367 150.887C214.367 150.887 214.636 150.793 214.731 151.048L215.363 152.809C215.485 153.105 215.39 153.213 215.283 153.266C214.677 153.589 213.209 154.207 210.436 154.221C209.09 154.221 207.918 154.032 206.949 153.656C205.966 153.28 205.158 152.742 204.526 152.057C203.893 151.371 203.422 150.551 203.125 149.61C202.833 148.615 202.688 147.583 202.695 146.546C202.695 145.457 202.829 144.422 203.112 143.481C203.395 142.54 203.839 141.693 204.418 140.994C205.01 140.282 205.751 139.717 206.639 139.301C207.528 138.884 208.618 138.682 209.817 138.682ZM187.084 138.826C187.326 138.813 187.597 138.814 187.899 138.829C188.531 138.869 189.353 139.045 189.514 139.112C189.582 139.139 189.73 139.247 189.662 139.462C189.568 139.717 189.097 141.035 188.949 141.465C188.881 141.626 188.787 141.747 188.599 141.72C188.599 141.72 188.033 141.586 187.535 141.586C187.185 141.586 186.687 141.639 186.243 141.774C185.812 141.908 185.408 142.15 185.058 142.486C184.708 142.822 184.412 143.306 184.21 143.898C183.994 144.502 183.887 145.47 183.887 146.425V153.589C183.887 153.75 183.752 153.885 183.59 153.885H181.059C180.898 153.885 180.763 153.75 180.763 153.589V139.26C180.763 139.099 180.884 138.965 181.046 138.965H183.51C183.671 138.965 183.792 139.099 183.792 139.26V140.43C184.169 139.932 184.829 139.502 185.421 139.233C185.866 139.032 186.356 138.868 187.084 138.826ZM132.552 141.197C131.286 141.197 130.396 141.693 129.804 142.594C129.414 143.185 129.158 143.951 129.023 144.865H135.876C135.809 143.978 135.634 143.185 135.243 142.594C134.651 141.693 133.816 141.196 132.551 141.196L132.552 141.197ZM209.615 141.197C208.349 141.197 207.459 141.693 206.867 142.594C206.476 143.185 206.221 143.951 206.086 144.865H212.939C212.871 143.978 212.71 143.185 212.306 142.594C211.714 141.693 210.879 141.196 209.613 141.196L209.615 141.197ZM171.245 141.275C169.979 141.275 169.077 141.705 168.485 142.606C167.879 143.52 167.583 144.81 167.583 146.45C167.583 148.09 167.893 149.395 168.485 150.309C169.077 151.21 169.979 151.653 171.245 151.653C172.497 151.653 173.411 151.21 174.003 150.309C174.609 149.395 174.919 148.091 174.919 146.451C174.919 144.798 174.609 143.508 174.017 142.607C173.411 141.707 172.509 141.276 171.243 141.276L171.245 141.275ZM111.038 146.786C109.072 146.759 108.236 147.488 108.25 147.488C107.671 147.891 107.388 148.493 107.388 149.34C107.388 149.878 107.482 150.294 107.671 150.59C107.792 150.778 107.846 150.859 108.223 151.155C108.223 151.155 109.084 151.843 111.05 151.735C112.423 151.641 113.648 151.386 113.648 151.386V147.017C113.648 147.017 112.411 146.8 111.038 146.786Z" fill="#404040"/>
</svg>
