<svg width="300" height="300" viewBox="0 0 300 300" fill="none" xmlns="http://www.w3.org/2000/svg">
  <path d="M55.8251 125C55.1685 125 54.5183 125.13 53.9117 125.381C53.3052 125.633 52.7541 126.001 52.2899 126.465C51.3525 127.403 50.826 128.675 50.8263 130.001C50.8265 130.658 50.956 131.308 51.2074 131.915C51.4588 132.521 51.8273 133.072 52.2917 133.536C53.2296 134.474 54.5015 135 55.8276 135H60.8176V130C60.8176 128.675 60.2918 127.405 59.3557 126.467C58.4197 125.53 57.1498 125.002 55.8251 125ZM55.8251 138.332H42.5201C41.194 138.332 39.9222 138.859 38.9845 139.797C38.0469 140.735 37.5201 142.006 37.5201 143.332C37.5201 144.659 38.0469 145.93 38.9845 146.868C39.9222 147.806 41.194 148.332 42.5201 148.332H55.8251C57.1511 148.332 58.4229 147.806 59.3606 146.868C60.2983 145.93 60.8251 144.659 60.8251 143.332C60.8251 142.006 60.2983 140.735 59.3606 139.797C58.4229 138.859 57.1511 138.332 55.8251 138.332Z" fill="#7D7D7D"/>
  <path opacity="0.25" d="M87.4301 143.332C87.4301 142.008 86.9043 140.739 85.9682 139.803C85.0322 138.867 83.7627 138.341 82.4389 138.341C81.1151 138.341 79.8456 138.867 78.9096 139.803C77.9735 140.739 77.4477 142.008 77.4477 143.332V148.332H82.4402C83.7645 148.33 85.0337 147.802 85.9692 146.864C86.9047 145.927 87.4302 144.657 87.4301 143.332ZM74.1227 143.332V130C74.1227 128.676 73.5969 127.407 72.6611 126.471C71.7253 125.535 70.4561 125.01 69.1327 125.01C67.8092 125.01 66.54 125.535 65.6042 126.471C64.6684 127.407 64.1427 128.676 64.1427 130V143.332C64.1427 144.656 64.6684 145.925 65.6042 146.861C66.54 147.797 67.8092 148.322 69.1327 148.322C70.4561 148.322 71.7253 147.797 72.6611 146.861C73.5969 145.925 74.1227 144.656 74.1227 143.332Z" fill="#7D7D7D"/>
  <path opacity="0.7" d="M69.1326 175C70.4586 175 71.7304 174.473 72.6681 173.536C73.6058 172.598 74.1326 171.326 74.1326 170C74.1326 168.674 73.6058 167.402 72.6681 166.464C71.7304 165.527 70.4586 165 69.1326 165H64.1426V170C64.1426 171.324 64.668 172.595 65.6035 173.532C66.539 174.469 67.8082 174.997 69.1326 175ZM69.1326 161.665H82.4401C83.7661 161.665 85.0379 161.138 85.9756 160.201C86.9133 159.263 87.44 157.991 87.44 156.665C87.44 155.339 86.9133 154.067 85.9756 153.13C85.0379 152.192 83.7661 151.665 82.4401 151.665H69.1351C67.809 151.665 66.5371 152.191 65.5992 153.129C65.1348 153.593 64.7663 154.144 64.5149 154.75C64.2635 155.357 64.134 156.007 64.1338 156.664C64.1337 157.32 64.2628 157.971 64.5139 158.577C64.7651 159.184 65.1332 159.735 65.5974 160.2C66.5348 161.138 67.8065 161.665 69.1326 161.665Z" fill="#7D7D7D"/>
  <path opacity="0.5" d="M37.5302 156.665C37.5302 157.32 37.6593 157.97 37.9101 158.575C38.1609 159.181 38.5286 159.731 38.9921 160.194C39.4555 160.658 40.0058 161.026 40.6113 161.276C41.2169 161.527 41.8659 161.656 42.5214 161.656C43.1769 161.656 43.8259 161.527 44.4315 161.276C45.037 161.026 45.5873 160.658 46.0507 160.194C46.5142 159.731 46.8819 159.181 47.1327 158.575C47.3835 157.97 47.5126 157.32 47.5126 156.665V151.665H42.5201C41.1958 151.668 39.9266 152.196 38.9911 153.133C38.0556 154.07 37.5301 155.341 37.5302 156.665ZM50.8376 156.665V170C50.8376 170.655 50.9667 171.304 51.2175 171.91C51.4683 172.515 51.8358 173.065 52.2992 173.528C52.7625 173.992 53.3126 174.359 53.918 174.61C54.5235 174.861 55.1723 174.99 55.8276 174.99C56.4829 174.99 57.1318 174.861 57.7372 174.61C58.3426 174.359 58.8927 173.992 59.3561 173.528C59.8195 173.065 60.187 172.515 60.4378 171.91C60.6886 171.304 60.8176 170.655 60.8176 170V156.67C60.8183 155.347 60.2932 154.077 59.3579 153.141C58.4225 152.205 57.1536 151.678 55.8301 151.678C54.5067 151.677 53.2372 152.202 52.3009 153.137C51.3647 154.073 50.8383 155.342 50.8376 156.665Z" fill="#7D7D7D"/>
  <path d="M130.689 143.493C130.582 142.147 130.08 141.096 129.183 140.342C128.3 139.588 126.955 139.211 125.148 139.211C123.997 139.211 123.053 139.352 122.317 139.635C121.594 139.905 121.059 140.275 120.711 140.746C120.363 141.218 120.182 141.756 120.169 142.362C120.142 142.86 120.229 143.312 120.43 143.716C120.644 144.106 120.979 144.463 121.434 144.786C121.889 145.096 122.471 145.379 123.18 145.634C123.89 145.89 124.733 146.119 125.71 146.321L129.083 147.048C131.358 147.533 133.306 148.173 134.925 148.967C136.545 149.762 137.87 150.698 138.901 151.775C139.931 152.839 140.687 154.038 141.169 155.371C141.665 156.704 141.919 158.158 141.932 159.734C141.919 162.454 141.243 164.757 139.904 166.642C138.566 168.527 136.652 169.962 134.162 170.945C131.686 171.928 128.708 172.419 125.228 172.419C121.654 172.419 118.536 171.887 115.872 170.823C113.222 169.76 111.161 168.123 109.689 165.915C108.23 163.693 107.493 160.852 107.48 157.391H118.081C118.148 158.657 118.462 159.72 119.024 160.582C119.587 161.444 120.376 162.097 121.393 162.542C122.424 162.986 123.649 163.208 125.068 163.208C126.259 163.208 127.256 163.06 128.059 162.764C128.862 162.468 129.471 162.057 129.886 161.532C130.301 161.006 130.515 160.407 130.528 159.734C130.515 159.101 130.308 158.549 129.906 158.077C129.518 157.593 128.875 157.162 127.979 156.785C127.082 156.394 125.871 156.031 124.345 155.694L120.249 154.805C116.608 154.011 113.737 152.684 111.636 150.826C109.548 148.954 108.511 146.402 108.524 143.17C108.511 140.544 109.207 138.248 110.612 136.282C112.031 134.303 113.992 132.761 116.495 131.656C119.011 130.552 121.895 130 125.148 130C128.467 130 131.338 130.559 133.761 131.677C136.184 132.794 138.051 134.37 139.362 136.403C140.687 138.423 141.357 140.787 141.37 143.493H130.689Z" fill="#404040"/>
  <path d="M157.422 130.566V171.934H146.339V130.566H157.422Z" fill="#404040"/>
  <path d="M171.661 172.419C169.694 172.419 167.954 172.096 166.441 171.45C164.942 170.79 163.764 169.793 162.908 168.46C162.051 167.127 161.623 165.43 161.623 163.37C161.623 161.673 161.911 160.225 162.486 159.027C163.062 157.815 163.865 156.825 164.895 156.057C165.926 155.29 167.124 154.704 168.489 154.3C169.868 153.896 171.354 153.634 172.946 153.512C174.673 153.378 176.058 153.216 177.102 153.028C178.16 152.826 178.923 152.549 179.391 152.199C179.859 151.836 180.094 151.358 180.094 150.765V150.684C180.094 149.876 179.786 149.257 179.17 148.826C178.554 148.395 177.765 148.18 176.801 148.18C175.744 148.18 174.88 148.415 174.211 148.887C173.555 149.344 173.16 150.051 173.027 151.008H162.827C162.961 149.122 163.557 147.385 164.614 145.796C165.685 144.194 167.244 142.914 169.292 141.958C171.34 140.989 173.897 140.504 176.962 140.504C179.17 140.504 181.151 140.766 182.905 141.292C184.658 141.803 186.15 142.524 187.382 143.453C188.613 144.369 189.55 145.446 190.192 146.685C190.848 147.91 191.176 149.243 191.176 150.684V171.934H180.816V167.571H180.576C179.96 168.729 179.21 169.665 178.327 170.379C177.457 171.093 176.46 171.611 175.335 171.934C174.225 172.258 173 172.419 171.661 172.419ZM175.275 165.39C176.118 165.39 176.908 165.215 177.644 164.865C178.394 164.514 179.003 164.009 179.471 163.35C179.94 162.69 180.174 161.888 180.174 160.946V158.36C179.88 158.481 179.565 158.596 179.23 158.704C178.909 158.811 178.561 158.912 178.186 159.007C177.825 159.101 177.437 159.188 177.022 159.269C176.62 159.35 176.199 159.424 175.757 159.491C174.9 159.626 174.198 159.848 173.649 160.158C173.114 160.454 172.712 160.825 172.444 161.269C172.19 161.7 172.063 162.185 172.063 162.723C172.063 163.585 172.364 164.245 172.966 164.703C173.569 165.161 174.338 165.39 175.275 165.39Z" fill="#404040"/>
  <path d="M211.329 172.5C207.982 172.5 205.118 171.833 202.736 170.5C200.353 169.154 198.526 167.282 197.255 164.885C195.983 162.474 195.347 159.68 195.347 156.502C195.347 153.324 195.983 150.536 197.255 148.139C198.526 145.729 200.353 143.857 202.736 142.524C205.118 141.177 207.982 140.504 211.329 140.504C214.354 140.504 216.97 141.056 219.179 142.16C221.401 143.251 223.121 144.8 224.339 146.806C225.557 148.799 226.172 151.142 226.186 153.836H215.906C215.759 152.206 215.29 150.967 214.501 150.119C213.724 149.257 212.721 148.826 211.489 148.826C210.526 148.826 209.682 149.109 208.959 149.674C208.237 150.227 207.675 151.068 207.273 152.199C206.871 153.317 206.671 154.724 206.671 156.421C206.671 158.118 206.871 159.532 207.273 160.663C207.675 161.781 208.237 162.622 208.959 163.188C209.682 163.74 210.526 164.016 211.489 164.016C212.306 164.016 213.028 163.828 213.658 163.451C214.287 163.06 214.795 162.494 215.183 161.754C215.585 161 215.826 160.084 215.906 159.007H226.186C226.145 161.74 225.523 164.124 224.318 166.157C223.114 168.177 221.407 169.739 219.199 170.844C217.004 171.948 214.38 172.5 211.329 172.5Z" fill="#404040"/>
  <path d="M240.716 164.582L240.797 151.331H242.242L249.711 140.908H262.159L249.631 157.148H246.499L240.716 164.582ZM230.758 171.934V130.566H241.841V171.934H230.758ZM249.791 171.934L242.724 159.653L249.952 151.735L262.48 171.934H249.791Z" fill="#404040"/>
</svg>
