<svg width="300" height="300" viewBox="0 0 300 300" fill="none" xmlns="http://www.w3.org/2000/svg">
  <path d="M124.67 54.8477C122.171 54.8483 119.697 55.3411 117.388 56.2981C115.08 57.255 112.982 58.6573 111.215 60.4249C107.647 63.9947 105.644 68.8357 105.645 73.8829C105.645 76.382 106.138 78.8565 107.095 81.1651C108.052 83.4738 109.454 85.5713 111.222 87.338C114.792 90.906 119.633 92.9098 124.68 92.9086H143.672V73.8781C143.672 68.8359 141.671 63.9997 138.109 60.4316C134.546 56.8635 129.713 54.8552 124.67 54.8477ZM124.67 105.592H74.0304C68.9833 105.592 64.1428 107.597 60.5739 111.166C57.005 114.735 55 119.576 55 124.623C55 129.67 57.005 134.51 60.5739 138.079C64.1428 141.648 68.9833 143.653 74.0304 143.653H124.67C129.718 143.653 134.558 141.648 138.127 138.079C141.696 134.51 143.701 129.67 143.701 124.623C143.701 119.576 141.696 114.735 138.127 111.166C134.558 107.597 129.718 105.592 124.67 105.592Z" fill="#3B9E65"/>
  <path opacity="0.25" d="M244.962 124.622C244.962 119.583 242.961 114.751 239.398 111.189C235.835 107.626 231.003 105.625 225.965 105.625C220.927 105.625 216.095 107.626 212.532 111.189C208.969 114.751 206.968 119.583 206.968 124.622V143.652H225.97C231.01 143.642 235.841 141.633 239.402 138.065C242.962 134.497 244.962 129.662 244.962 124.622ZM194.313 124.622V73.8772C194.313 68.8401 192.312 64.0093 188.75 60.4475C185.188 56.8857 180.357 54.8848 175.32 54.8848C170.283 54.8848 165.452 56.8857 161.891 60.4475C158.329 64.0093 156.328 68.8401 156.328 73.8772V124.622C156.328 129.659 158.329 134.49 161.891 138.051C165.452 141.613 170.283 143.614 175.32 143.614C180.357 143.614 185.188 141.613 188.75 138.051C192.312 134.49 194.313 129.659 194.313 124.622Z" fill="#3B9E65"/>
  <path opacity="0.7" d="M175.32 245.153C180.367 245.153 185.208 243.148 188.777 239.579C192.346 236.01 194.351 231.169 194.351 226.122C194.351 221.075 192.346 216.234 188.777 212.666C185.208 209.097 180.367 207.092 175.32 207.092H156.328V226.122C156.328 231.163 158.327 235.997 161.888 239.565C165.449 243.133 170.28 245.142 175.32 245.153ZM175.32 194.398H225.97C231.017 194.398 235.857 192.393 239.426 188.824C242.995 185.256 245 180.415 245 175.368C245 170.321 242.995 165.48 239.426 161.911C235.857 158.342 231.017 156.337 225.97 156.337H175.33C170.282 156.336 165.441 158.34 161.872 161.908C160.104 163.675 158.702 165.772 157.745 168.081C156.788 170.389 156.295 172.864 156.294 175.363C156.294 177.862 156.785 180.337 157.741 182.646C158.697 184.955 160.098 187.053 161.865 188.821C165.433 192.391 170.273 194.397 175.32 194.398Z" fill="#3B9E65"/>
  <path opacity="0.5" d="M55.0381 175.368C55.0381 177.863 55.5295 180.333 56.4842 182.638C57.4389 184.943 58.8382 187.037 60.6022 188.801C62.3663 190.565 64.4605 191.964 66.7653 192.919C69.0702 193.874 71.5405 194.365 74.0352 194.365C76.53 194.365 79.0003 193.874 81.3051 192.919C83.61 191.964 85.7042 190.565 87.4682 188.801C89.2323 187.037 90.6316 184.943 91.5863 182.638C92.541 180.333 93.0324 177.863 93.0324 175.368V156.337H74.0305C68.9899 156.347 64.1592 158.357 60.5985 161.925C57.0378 165.493 55.0381 170.327 55.0381 175.368ZM105.688 175.368V226.122C105.688 228.616 106.179 231.086 107.133 233.39C108.088 235.694 109.487 237.788 111.25 239.552C113.014 241.315 115.108 242.714 117.412 243.669C119.716 244.623 122.186 245.114 124.68 245.114C127.174 245.114 129.644 244.623 131.948 243.669C134.252 242.714 136.346 241.315 138.11 239.552C139.873 237.788 141.272 235.694 142.227 233.39C143.181 231.086 143.672 228.616 143.672 226.122V175.387C143.675 170.35 141.676 165.518 138.116 161.954C134.556 158.391 129.727 156.387 124.69 156.385C119.652 156.382 114.821 158.381 111.257 161.941C107.694 165.501 105.69 170.331 105.688 175.368Z" fill="#3B9E65"/>
</svg>
