<svg width="300" height="300" viewBox="0 0 300 300" fill="none" xmlns="http://www.w3.org/2000/svg">
  <path d="M229.5 44H70.5C63.4718 44 56.7314 46.792 51.7617 51.7617C46.792 56.7314 44 63.4718 44 70.5V229.5C44 236.528 46.792 243.269 51.7617 248.238C56.7314 253.208 63.4718 256 70.5 256H229.5C236.528 256 243.269 253.208 248.238 248.238C253.208 243.269 256 236.528 256 229.5V70.5C256 63.4718 253.208 56.7314 248.238 51.7617C243.269 46.792 236.528 44 229.5 44ZM136.22 205.12C136.22 208.494 134.88 211.729 132.494 214.114C130.109 216.5 126.874 217.84 123.5 217.84H84.28C77.284 217.84 71.56 212.116 71.56 205.12V84.28C71.56 80.9064 72.9001 77.6711 75.2856 75.2856C77.6711 72.9001 80.9064 71.56 84.28 71.56H123.5C130.496 71.56 136.22 77.284 136.22 84.28V205.12ZM228.44 152.12C228.44 159.116 222.716 164.84 215.72 164.84H176.5C169.504 164.84 163.78 159.116 163.78 152.12V84.28C163.78 77.284 169.504 71.56 176.5 71.56H215.72C222.716 71.56 228.44 77.284 228.44 84.28V152.12Z" fill="#3B9E65"/>
</svg>
