<svg width="300" height="300" viewBox="0 0 300 300" fill="none" xmlns="http://www.w3.org/2000/svg">
  <path d="M100 125H62.5C60.8424 125 59.2527 125.658 58.0806 126.831C56.9085 128.003 56.25 129.592 56.25 131.25V168.75C56.25 170.408 56.9085 171.997 58.0806 173.169C59.2527 174.342 60.8424 175 62.5 175H100C101.658 175 103.247 174.342 104.419 173.169C105.592 171.997 106.25 170.408 106.25 168.75V131.25C106.25 129.592 105.592 128.003 104.419 126.831C103.247 125.658 101.658 125 100 125ZM78 163C78 163.796 77.6839 164.559 77.1213 165.121C76.5587 165.684 75.7956 166 75 166H65.75C64.1 166 62.75 164.65 62.75 163V134.5C62.75 133.704 63.0661 132.941 63.6287 132.379C64.1913 131.816 64.9544 131.5 65.75 131.5H75C76.65 131.5 78 132.85 78 134.5V163ZM99.75 150.5C99.75 152.15 98.4 153.5 96.75 153.5H87.5C85.85 153.5 84.5 152.15 84.5 150.5V134.5C84.5 132.85 85.85 131.5 87.5 131.5H96.75C98.4 131.5 99.75 132.85 99.75 134.5V150.5Z" fill="#7D7D7D"/>
  <path d="M121.25 139.513V132.5H148.899V139.513H139.33V164.562H130.818V139.513H121.25Z" fill="#404040"/>
  <path d="M149.796 164.562V140.515H158.121V145.087H158.37C158.805 143.396 159.493 142.159 160.436 141.376C161.388 140.594 162.501 140.202 163.775 140.202C164.148 140.202 164.516 140.234 164.878 140.296C165.251 140.348 165.608 140.427 165.95 140.531V147.905C165.525 147.759 165.002 147.649 164.381 147.576C163.76 147.503 163.226 147.466 162.781 147.466C161.942 147.466 161.186 147.659 160.513 148.046C159.85 148.421 159.328 148.954 158.944 149.642C158.561 150.321 158.37 151.119 158.37 152.038V164.562H149.796Z" fill="#404040"/>
  <path d="M178.826 165C176.279 165 174.084 164.509 172.241 163.528C170.408 162.537 168.994 161.118 168 159.27C167.016 157.412 166.524 155.189 166.524 152.601C166.524 150.117 167.021 147.946 168.016 146.089C169.01 144.231 170.413 142.785 172.225 141.752C174.037 140.719 176.176 140.202 178.64 140.202C180.442 140.202 182.073 140.484 183.533 141.048C184.993 141.611 186.241 142.431 187.276 143.506C188.312 144.57 189.109 145.864 189.668 147.388C190.228 148.912 190.507 150.629 190.507 152.539V154.542H169.196V149.783H182.616C182.606 149.094 182.43 148.489 182.088 147.967C181.757 147.435 181.307 147.023 180.737 146.73C180.178 146.428 179.541 146.276 178.826 146.276C178.133 146.276 177.496 146.428 176.916 146.73C176.336 147.023 175.87 147.43 175.518 147.952C175.176 148.473 174.995 149.084 174.974 149.783V154.918C174.974 155.69 175.135 156.379 175.456 156.985C175.777 157.59 176.238 158.065 176.838 158.409C177.439 158.754 178.164 158.926 179.013 158.926C179.603 158.926 180.142 158.842 180.628 158.675C181.125 158.508 181.55 158.268 181.902 157.955C182.254 157.632 182.513 157.246 182.679 156.797H190.507C190.238 158.467 189.601 159.917 188.597 161.149C187.592 162.37 186.262 163.32 184.605 163.998C182.958 164.666 181.032 165 178.826 165Z" fill="#404040"/>
  <path d="M202.58 132.5V164.562H194.006V132.5H202.58Z" fill="#404040"/>
  <path d="M215.523 132.5V164.562H206.949V132.5H215.523Z" fill="#404040"/>
  <path d="M231.386 165C228.797 165 226.581 164.483 224.738 163.45C222.895 162.406 221.481 160.956 220.497 159.098C219.514 157.23 219.022 155.064 219.022 152.601C219.022 150.138 219.514 147.978 220.497 146.12C221.481 144.252 222.895 142.801 224.738 141.768C226.581 140.724 228.797 140.202 231.386 140.202C233.975 140.202 236.191 140.724 238.034 141.768C239.877 142.801 241.291 144.252 242.274 146.12C243.258 147.978 243.75 150.138 243.75 152.601C243.75 155.064 243.258 157.23 242.274 159.098C241.291 160.956 239.877 162.406 238.034 163.45C236.191 164.483 233.975 165 231.386 165ZM231.448 158.613C232.173 158.613 232.799 158.367 233.327 157.877C233.856 157.386 234.265 156.687 234.555 155.779C234.844 154.871 234.989 153.791 234.989 152.539C234.989 151.276 234.844 150.195 234.555 149.298C234.265 148.39 233.856 147.691 233.327 147.2C232.799 146.71 232.173 146.464 231.448 146.464C230.682 146.464 230.024 146.71 229.475 147.2C228.926 147.691 228.507 148.39 228.217 149.298C227.927 150.195 227.782 151.276 227.782 152.539C227.782 153.791 227.927 154.871 228.217 155.779C228.507 156.687 228.926 157.386 229.475 157.877C230.024 158.367 230.682 158.613 231.448 158.613Z" fill="#404040"/>
</svg>
