<svg width="300" height="300" viewBox="0 0 300 300" fill="none" xmlns="http://www.w3.org/2000/svg">
  <g clip-path="url(#clip0_49_670)">
    <path d="M101.158 159.198L101.132 159.116L117.507 144.125V136.902H91.2353V144.125H106.927L106.953 144.194L90.7378 159.198V166.421H117.771V159.198H101.158ZM133.899 136.214C130.869 136.214 128.399 136.671 126.49 137.585C124.712 138.381 123.214 139.694 122.191 141.352C121.212 143.021 120.597 144.878 120.387 146.802L128.359 147.922C128.647 146.224 129.224 145.02 130.089 144.311C130.972 143.645 132.041 143.273 133.146 143.247L133.514 143.251C135.132 143.251 136.306 143.683 137.035 144.548C137.758 145.414 138.126 146.611 138.126 148.19V148.978H130.46C126.559 148.978 123.756 149.843 122.052 151.573C120.348 153.303 119.497 155.586 119.5 158.424C119.5 161.33 120.351 163.493 122.052 164.912C123.754 166.33 125.893 167.035 128.471 167.027C131.669 167.027 134.129 165.927 135.85 163.727C136.866 162.375 137.592 160.827 137.982 159.181H138.272L139.371 166.404H146.594V148.113C146.594 144.332 145.597 141.404 143.605 139.328C141.612 137.252 138.377 136.214 133.899 136.214M136.425 158.761C135.279 159.717 133.778 160.193 131.909 160.193C130.37 160.193 129.3 159.923 128.7 159.384C128.408 159.129 128.176 158.813 128.019 158.457C127.863 158.102 127.787 157.717 127.796 157.329C127.779 156.964 127.836 156.598 127.965 156.256C128.094 155.913 128.291 155.6 128.544 155.336C129.027 154.883 129.656 154.617 130.318 154.586L138.138 154.587V155.085C138.153 155.788 138.006 156.485 137.71 157.122C137.413 157.76 136.973 158.32 136.425 158.761ZM190.27 136.901H181.737V166.425H190.27V136.901ZM240.655 136.901C238.244 136.901 236.344 137.752 234.954 139.453C233.956 140.676 233.198 142.483 232.679 144.873H232.428L231.312 136.902H224.024V166.421H232.558V151.283C232.558 149.374 233.005 147.911 233.899 146.893C234.793 145.875 236.442 145.366 238.846 145.366H242.086V136.902L240.655 136.901ZM215.555 137.866C213.563 136.681 211.05 136.09 208.017 136.093C203.241 136.093 199.504 137.452 196.806 140.171C194.106 142.891 192.757 146.639 192.757 151.417C192.688 154.306 193.319 157.168 194.595 159.76C195.764 162.07 197.583 163.987 199.829 165.275C202.089 166.581 204.778 167.236 207.896 167.239C210.591 167.239 212.843 166.824 214.651 165.993C216.351 165.247 217.831 164.078 218.951 162.597C220.016 161.144 220.807 159.508 221.286 157.771L213.933 155.712C213.624 156.842 213.028 157.872 212.203 158.705C211.372 159.535 209.981 159.951 208.029 159.951C205.708 159.951 203.978 159.286 202.839 157.957C202.013 156.996 201.494 155.625 201.265 153.848H221.399C221.481 153.017 221.524 152.321 221.524 151.759V149.92C221.573 147.451 221.063 145.003 220.032 142.758C219.067 140.713 217.507 139.008 215.555 137.866M207.77 143.129C211.23 143.129 213.192 144.832 213.656 148.237H201.416C201.611 147.101 202.082 146.03 202.787 145.119C203.909 143.79 205.57 143.127 207.77 143.129ZM186.096 125.003C185.454 124.981 184.815 125.088 184.215 125.319C183.615 125.549 183.068 125.897 182.606 126.343C181.779 127.161 181.291 128.259 181.237 129.42L181.235 129.804C181.212 130.448 181.322 131.09 181.558 131.69C181.794 132.29 182.152 132.835 182.608 133.291C183.435 134.118 184.542 134.606 185.71 134.659L186.096 134.661C186.737 134.685 187.375 134.576 187.971 134.34C188.567 134.104 189.107 133.746 189.557 133.29C190.367 132.454 190.842 131.351 190.892 130.188L190.894 129.804C190.923 129.166 190.819 128.53 190.589 127.935C190.358 127.34 190.006 126.799 189.556 126.348C189.105 125.897 188.564 125.544 187.969 125.314C187.375 125.083 186.738 124.978 186.101 125.007L186.096 125.003ZM168.467 136.093C165.56 136.093 163.225 137.005 161.46 138.83C160.154 140.183 159.195 142.201 158.584 144.886H158.312L157.195 136.915H149.908V174.907H158.441V159.259H158.752C159.012 160.302 159.378 161.316 159.842 162.286C160.564 163.866 161.748 165.19 163.238 166.084C164.782 166.927 166.522 167.347 168.281 167.3C171.853 167.3 174.574 165.908 176.442 163.125C178.311 160.343 179.245 156.46 179.245 151.478C179.245 146.665 178.341 142.898 176.534 140.175C174.726 137.454 172.037 136.093 168.467 136.093ZM169.332 157.485C168.403 158.831 166.985 159.549 165.077 159.638L164.66 159.648C163.787 159.688 162.916 159.52 162.12 159.157C161.324 158.793 160.627 158.246 160.085 157.559C158.98 156.172 158.429 154.273 158.432 151.863V151.3C158.432 148.852 158.983 146.977 160.085 145.677C161.186 144.377 162.711 143.734 164.66 143.748C166.817 143.748 168.385 144.433 169.362 145.803C170.34 147.173 170.829 149.083 170.828 151.534C170.835 154.068 170.339 156.052 169.34 157.485H169.332Z" fill="#404040"/>
    <path d="M87.4378 159.198H57.9137V166.43H87.4378V159.198Z" fill="#7D7D7D"/>
  </g>
  <defs>
    <clipPath id="clip0_49_670">
      <rect width="184.173" height="50" fill="white" transform="translate(57.9137 125)"/>
    </clipPath>
  </defs>
</svg>
