<svg width="300" height="300" viewBox="0 0 300 300" fill="none" xmlns="http://www.w3.org/2000/svg">
  <path d="M172.083 150.044C172.079 156.508 170.931 162.919 168.691 168.983C162.739 171.262 156.418 172.429 150.044 172.428H149.956C143.585 172.428 137.268 171.261 131.318 168.983C129.072 162.921 127.918 156.509 127.908 150.044V149.956C127.908 143.287 129.118 136.909 131.3 131.008C137.255 128.728 143.579 127.561 149.956 127.563H150.027C156.59 127.563 162.879 128.791 168.683 131.008C170.926 137.068 172.075 143.481 172.075 149.956L172.083 150.044ZM237.106 135.045H185.545L222.001 98.0157C216.289 89.857 209.252 82.7122 201.18 76.8776L164.716 113.907V61.5341C159.872 60.7118 154.967 60.2952 150.053 60.2886H149.956C144.95 60.3004 140.06 60.7155 135.284 61.5341V113.907L98.8109 76.8776C94.7888 79.7808 91.0317 83.0079 87.5396 86.5589L87.5219 86.5766C84.0357 90.1158 80.8616 93.9318 77.9996 98.0246L114.464 135.045H62.9034C62.9034 135.045 61.6667 144.885 61.6667 149.973V150.035C61.6726 155.123 62.0849 160.096 62.9034 164.955H114.464L77.9907 201.975C83.7169 210.127 90.7554 217.273 98.8197 223.122L135.284 186.102V238.475C140.126 239.293 145.028 239.707 149.938 239.711H150.062C154.973 239.711 159.861 239.299 164.725 238.475V186.093L201.18 223.131C205.203 220.216 208.963 216.989 212.461 213.45H212.469C215.956 209.893 219.133 206.074 222.001 201.993L185.537 164.955H237.114C237.921 160.102 238.328 155.141 238.333 150.071V149.938C238.333 144.938 237.927 139.977 237.114 135.054" fill="#3B9E65"/>
</svg>
